{"glyphs":{"0":{"ha":833,"x_min":0,"x_max":0,"o":""},"1":{"ha":833,"x_min":0,"x_max":0,"o":""},"2":{"ha":833,"x_min":0,"x_max":0,"o":""},"3":{"ha":833,"x_min":0,"x_max":0,"o":""},"4":{"ha":833,"x_min":0,"x_max":0,"o":""},"5":{"ha":833,"x_min":0,"x_max":0,"o":""},"6":{"ha":833,"x_min":0,"x_max":0,"o":""},"7":{"ha":833,"x_min":0,"x_max":0,"o":""},"8":{"ha":833,"x_min":0,"x_max":0,"o":""},"9":{"ha":833,"x_min":0,"x_max":0,"o":""}," ":{"ha":833,"x_min":0,"x_max":0,"o":""},"!":{"ha":833,"x_min":0,"x_max":213,"o":"m 36 854 l 176 854 q 202 842 192 854 q 213 814 213 831 l 196 251 q 185 222 196 235 q 160 210 175 210 l 50 210 q 25 222 36 210 q 14 251 14 235 l 0 814 q 10 842 0 831 q 36 854 21 854 m 110 789 q 82 774 92 792 q 83 742 72 756 q 117 733 100 725 q 130 744 124 736 q 135 760 136 751 q 110 789 129 786 m 117 269 q 135 297 138 278 q 110 325 129 322 q 82 310 92 328 q 83 278 72 293 q 117 269 97 264 m 196 156 q 197 129 197 153 l 197 74 q 185 11 197 22 q 131 0 174 0 l 49 0 q 13 35 15 3 l 13 110 q 21 168 13 158 q 68 182 32 182 l 157 182 q 196 156 183 182 m 132 100 q 107 128 126 125 q 79 113 89 131 q 82 81 69 96 q 114 72 94 65 q 132 100 135 81 z "},"#":{"ha":833,"x_min":0,"x_max":689,"o":"m 582 457 l 564 369 q 567 356 561 363 q 581 349 572 349 l 672 349 q 689 332 689 349 l 689 213 q 684 200 689 206 q 672 194 679 194 l 542 194 q 525 182 528 194 l 489 14 q 472 0 486 0 l 353 0 q 341 6 346 0 q 338 21 336 13 l 369 175 q 366 188 371 182 q 353 194 361 194 l 239 194 q 222 182 225 194 l 188 14 q 171 0 183 0 l 51 0 q 38 6 43 0 q 35 21 33 13 l 67 175 q 64 188 69 182 q 50 194 58 194 l 17 194 q 0 213 0 194 l 0 332 q 17 349 0 349 l 89 349 q 106 363 103 349 l 124 450 q 120 463 125 457 q 107 469 115 469 l 17 469 q 0 488 0 469 l 0 607 q 17 624 0 624 l 146 624 q 163 638 160 624 l 199 806 q 215 819 201 819 l 335 819 q 344 817 339 819 q 408 789 382 815 q 435 724 435 763 q 408 659 435 686 q 343 632 382 632 q 319 635 333 632 q 335 624 322 624 l 449 624 q 465 638 463 624 l 501 806 q 518 819 504 819 l 636 819 q 649 813 644 819 q 653 799 654 807 l 621 644 q 638 624 618 624 l 672 624 q 689 607 689 624 l 689 488 q 684 475 689 481 q 672 469 679 469 l 599 469 q 582 457 585 469 m 375 724 q 366 747 375 738 q 343 756 357 756 q 320 747 329 756 q 311 724 311 738 q 320 701 311 711 q 343 692 329 692 q 366 701 357 692 q 375 724 375 711 m 408 363 l 426 450 q 423 463 428 457 q 410 469 418 469 l 296 469 q 279 457 282 469 l 261 369 q 264 356 258 363 q 278 349 269 349 l 392 349 q 408 363 406 349 z "},"*":{"ha":833,"x_min":0,"x_max":0,"o":""},".":{"ha":833,"x_min":0,"x_max":0,"o":""},">":{"ha":833,"x_min":0,"x_max":593,"o":"m 0 293 q 1 338 0 324 q 29 426 6 372 q 81 497 46 457 q 231 582 143 567 q 410 564 328 600 q 544 449 496 528 q 588 276 593 364 q 519 107 579 176 q 372 11 463 36 q 193 18 289 -15 q 56 122 106 46 q 14 201 24 168 q 0 293 0 244 z "},"?":{"ha":833,"x_min":-1,"x_max":575,"o":"m 572 644 l 572 643 q 572 586 575 622 q 528 475 569 528 q 457 401 517 461 l 440 388 q 425 374 436 382 q 397 347 406 357 q 375 300 379 328 q 371 243 371 272 q 359 215 371 226 q 331 201 347 203 l 306 201 l 282 201 l 257 201 l 250 201 q 207 218 219 201 q 199 267 199 231 l 199 279 q 206 340 199 308 q 263 450 221 404 q 335 517 290 481 l 347 528 q 396 621 406 578 q 367 668 389 647 q 318 694 344 689 q 292 697 310 697 q 217 671 243 697 q 188 622 200 656 q 181 593 181 596 l 181 592 q 169 563 174 568 q 136 549 157 549 l 119 549 q 93 551 103 551 q 67 555 85 553 q 39 558 49 557 q 1 593 3 564 q 8 647 -1 610 q 11 658 11 656 q 69 767 29 722 q 174 835 110 811 q 289 854 228 854 q 421 829 361 854 q 522 754 481 804 q 572 644 563 708 m 317 779 q 296 810 319 804 q 265 797 278 814 q 264 765 253 781 q 294 754 275 750 q 317 779 310 757 m 311 276 q 289 307 315 299 q 259 294 271 311 q 258 263 247 278 q 289 250 269 244 q 311 276 304 254 m 374 156 q 375 129 375 153 l 375 74 q 364 11 375 22 q 308 0 351 0 l 226 0 q 190 35 193 3 q 190 58 190 46 q 190 86 190 71 q 190 110 190 101 q 199 168 190 158 q 247 182 210 182 l 292 183 q 335 182 335 183 q 374 156 361 182 m 310 100 q 285 128 304 125 q 257 113 267 131 q 260 81 247 96 q 292 72 272 65 q 310 100 313 81 z "},"A":{"ha":833,"x_min":-4,"x_max":774,"o":"m 769 24 q 769 11 774 18 q 757 1 764 4 q 739 0 751 0 l 582 0 q 562 4 571 0 q 547 14 553 8 q 537 31 542 19 q 530 47 532 42 q 524 67 528 53 q 518 86 519 82 q 479 119 510 117 l 426 119 l 331 119 l 283 119 q 251 99 261 115 q 235 58 242 82 q 222 22 229 33 q 182 0 208 0 l 104 0 l 26 0 q 8 3 14 0 q 1 29 -4 11 q 3 38 1 32 q 7 46 6 43 q 25 90 10 51 l 150 426 q 202 565 168 475 q 249 688 236 654 q 264 711 254 703 q 306 725 279 725 l 468 725 q 522 685 508 725 l 560 586 l 693 232 l 747 86 q 756 65 750 79 q 764 43 761 50 q 767 34 764 42 q 769 24 769 26 m 353 639 q 363 621 353 629 q 383 611 372 613 q 403 617 393 610 q 415 632 413 624 q 406 668 424 653 q 369 672 389 685 q 353 639 353 664 m 454 297 q 450 315 454 307 q 440 349 444 338 q 424 402 435 368 q 410 450 414 436 q 405 467 408 456 q 399 488 401 479 q 393 504 396 497 q 382 518 383 518 q 372 504 376 518 q 328 356 356 456 q 313 308 317 325 q 317 285 310 294 q 338 276 324 276 l 418 276 l 438 276 q 449 285 446 279 q 452 292 451 288 q 454 297 453 296 z "},"B":{"ha":833,"x_min":0,"x_max":663,"o":"m 658 219 q 654 161 663 196 q 594 60 640 97 q 544 25 567 35 q 488 11 535 21 q 243 0 424 0 l 63 0 l 29 0 q 0 35 3 3 l 0 118 l 0 297 l 0 651 l 0 688 q 14 717 3 707 q 47 725 22 725 l 111 725 l 307 725 l 415 725 q 536 697 500 719 q 617 599 604 656 q 611 475 636 526 q 576 426 599 449 l 565 415 l 553 408 q 541 401 551 407 q 528 392 531 396 q 539 376 519 381 q 567 365 551 372 q 615 329 601 347 q 658 219 658 279 m 271 651 q 276 629 265 644 q 296 617 285 618 q 331 631 318 611 q 331 668 344 650 q 296 681 317 688 q 271 651 269 672 m 214 474 q 229 447 214 457 q 254 442 236 442 l 326 442 q 378 454 354 442 q 404 497 399 465 q 396 547 408 526 q 354 574 382 569 q 306 576 324 576 l 263 576 q 240 575 247 576 q 214 539 217 568 l 214 474 m 433 238 q 400 289 438 271 q 336 303 375 303 l 258 303 q 217 281 224 303 q 214 257 214 274 l 214 208 q 233 163 214 174 q 257 160 242 160 l 304 160 q 363 161 353 160 q 417 183 403 167 q 433 238 433 203 z "},"C":{"ha":833,"x_min":-1,"x_max":700,"o":"m 697 236 q 692 200 700 232 q 676 165 686 183 q 569 44 635 85 q 492 14 533 24 q 408 1 464 7 l 325 1 q 242 15 288 3 q 161 47 190 28 q 97 100 124 69 q 47 169 69 131 q 17 246 33 192 q 1 332 7 274 q 1 418 -1 376 q 47 588 8 508 q 165 706 82 657 q 333 750 228 742 q 504 733 432 754 q 642 638 585 708 q 683 567 660 613 q 685 532 694 544 q 661 517 678 521 q 550 493 625 510 q 492 507 503 481 q 451 558 481 533 q 417 576 436 569 q 378 582 408 579 q 297 563 336 589 q 267 536 279 550 q 244 500 261 529 q 226 417 236 482 q 226 331 222 374 q 290 188 236 217 q 328 172 322 174 l 369 168 q 446 190 410 168 q 492 253 472 208 q 498 269 493 256 q 507 289 503 282 q 542 300 519 306 q 638 272 553 299 q 653 267 639 272 q 674 260 668 263 q 687 251 679 258 q 697 236 694 244 m 350 657 q 360 637 349 646 q 383 629 372 628 q 414 651 407 629 q 403 688 421 672 q 365 690 388 703 q 350 657 350 681 z "},"D":{"ha":833,"x_min":0,"x_max":671,"o":"m 667 397 q 667 338 671 368 q 663 276 663 278 q 651 217 661 249 q 632 164 643 182 q 601 115 608 122 q 521 42 568 72 q 406 6 492 24 q 310 0 381 0 l 139 0 l 60 0 l 28 0 q 0 58 0 6 l 0 368 l 0 671 l 0 692 q 29 726 3 719 l 64 726 l 146 726 l 313 726 q 407 721 364 726 q 521 685 468 714 q 545 667 529 679 q 565 651 561 654 q 601 610 572 647 q 631 558 619 588 q 633 551 631 556 q 638 546 636 547 l 642 533 q 646 519 643 529 q 650 506 649 510 q 667 397 667 436 m 285 643 q 292 622 283 632 q 313 610 301 613 q 346 625 332 606 q 351 643 351 631 q 344 663 351 651 q 307 675 332 682 q 291 662 299 672 q 285 643 283 651 m 443 365 q 442 379 443 369 q 442 394 442 389 q 419 499 436 467 q 331 557 392 547 q 279 563 315 560 q 238 556 247 563 q 227 540 231 550 q 224 522 224 529 q 224 499 224 514 q 225 481 225 485 l 225 203 q 236 171 225 181 q 251 164 243 165 q 272 164 258 163 q 289 165 286 165 q 385 185 353 165 q 435 264 417 201 q 442 311 439 279 q 443 365 443 329 z "},"E":{"ha":833,"x_min":0,"x_max":604,"o":"m 603 14 l 603 13 q 601 10 601 11 l 601 8 l 600 8 l 596 4 l 596 3 l 594 1 l 592 1 l 590 0 l 15 0 l 13 1 l 11 1 l 8 3 l 7 3 l 0 10 l 0 707 l 7 714 l 10 715 l 11 717 l 18 717 l 192 717 l 482 717 l 567 717 l 581 717 q 594 697 594 715 q 594 659 594 683 q 594 615 594 635 q 594 578 594 594 q 594 574 594 576 q 593 571 593 572 q 582 556 590 563 l 581 554 l 579 554 l 578 553 l 575 551 l 571 551 l 558 551 l 293 551 l 247 551 l 232 551 q 228 550 229 551 q 221 519 218 546 q 222 467 221 475 q 242 450 226 453 l 271 450 l 407 450 l 532 450 l 553 450 q 567 429 567 449 l 567 365 q 567 351 567 360 q 568 334 568 342 q 567 321 568 326 q 563 311 567 315 l 563 310 l 560 307 l 557 306 l 554 306 l 551 304 l 547 304 l 518 304 l 257 304 l 236 304 q 231 301 233 304 q 222 282 222 294 l 222 217 l 222 190 q 225 181 222 189 q 235 171 229 172 q 243 169 238 169 l 278 169 l 414 169 l 550 169 q 561 170 553 169 q 577 171 569 171 q 590 169 585 171 q 592 169 592 169 l 594 168 q 603 160 600 167 q 604 126 604 158 l 604 56 q 603 14 604 18 m 264 657 l 263 654 l 261 653 q 258 639 258 649 q 265 619 257 628 q 285 608 274 611 l 299 608 l 301 611 l 307 614 l 313 619 l 314 621 l 314 624 l 315 628 l 317 631 l 318 635 l 318 642 l 317 646 l 315 649 l 314 653 l 314 654 l 313 657 l 307 663 l 304 664 l 301 667 l 297 668 l 294 668 q 265 658 275 671 l 264 657 z "},"F":{"ha":833,"x_min":0,"x_max":558,"o":"m 557 713 q 558 689 558 711 l 558 638 l 558 590 q 553 568 558 574 q 510 557 544 557 l 303 557 l 253 557 q 228 536 233 553 l 228 499 q 229 464 228 467 q 254 446 233 449 l 310 446 l 508 446 l 524 446 q 546 424 543 443 l 546 392 l 546 339 q 542 314 546 319 q 518 299 535 300 l 457 299 l 261 299 l 244 299 q 228 272 228 292 l 228 190 l 228 26 q 197 0 228 6 l 164 0 l 108 0 l 54 0 l 28 0 q 0 31 0 4 l 0 146 l 0 363 l 0 581 l 0 700 q 25 731 0 728 l 58 731 l 250 731 l 464 731 l 524 731 q 557 713 547 731 m 313 649 q 306 672 314 661 q 286 685 297 682 q 251 669 264 689 q 253 631 239 649 q 289 619 265 614 q 306 631 299 624 q 311 640 308 633 q 313 649 311 647 z "},"G":{"ha":833,"x_min":-3,"x_max":713,"o":"m 711 400 q 713 372 713 397 l 713 311 l 713 171 q 692 103 713 124 q 650 75 685 96 q 606 51 626 61 q 561 31 571 35 q 514 17 550 26 q 417 1 489 8 q 315 3 375 -1 q 132 65 203 10 q 22 229 50 132 q 3 328 7 283 q 3 429 -3 389 q 24 528 10 481 q 72 619 40 576 q 142 689 97 657 q 233 733 179 715 q 331 749 274 746 q 433 749 399 751 q 533 735 500 743 q 578 717 560 728 q 618 690 606 703 q 676 617 654 656 q 672 539 711 547 l 556 518 q 519 513 529 511 q 483 535 497 514 q 413 586 456 576 q 319 583 364 597 q 247 521 276 569 q 219 425 226 485 q 244 232 208 301 q 314 171 267 188 q 414 161 361 154 q 456 172 428 164 q 467 177 460 174 q 476 182 475 181 q 497 192 488 185 q 522 228 517 204 q 510 269 528 253 q 467 275 501 275 l 411 275 q 379 301 383 278 l 379 354 q 381 401 379 397 q 413 426 385 424 l 511 426 l 654 426 l 681 426 q 702 417 692 425 q 711 400 713 410 m 346 693 q 324 661 321 683 q 331 640 322 650 q 351 628 340 631 q 385 644 374 624 q 383 682 397 665 q 346 693 367 701 z "},"H":{"ha":833,"x_min":0,"x_max":694,"o":"m 693 700 q 694 683 694 697 l 694 654 l 694 382 l 694 93 l 694 36 q 678 6 694 14 q 642 0 668 0 l 507 0 q 475 17 483 3 q 469 49 469 25 l 469 192 l 469 251 q 464 281 469 272 q 431 294 453 294 l 371 294 l 257 294 q 240 290 247 294 q 230 278 233 285 q 225 261 226 272 q 223 243 224 250 q 223 224 222 236 q 224 208 224 211 l 224 103 l 224 49 q 210 7 224 17 q 175 0 200 0 l 101 0 l 39 0 q 8 15 17 3 q 0 64 0 25 l 0 326 l 0 622 l 0 690 q 44 728 0 728 l 182 728 q 214 718 203 728 q 224 696 224 708 q 224 683 224 693 q 225 674 224 674 l 249 674 q 269 685 251 675 q 296 704 275 689 q 340 715 314 715 q 367 711 354 715 q 407 686 390 706 q 428 642 424 667 q 422 590 433 615 q 388 550 410 564 q 304 544 342 525 q 282 558 290 550 q 260 574 264 572 q 243 575 254 575 l 225 575 l 225 572 q 224 569 225 571 l 224 507 q 286 472 225 472 l 428 472 q 458 482 449 472 q 469 514 469 493 l 469 656 q 469 669 469 658 q 469 684 469 679 q 471 697 469 689 q 475 710 472 706 q 483 720 478 715 q 497 726 489 725 q 538 728 503 728 l 617 728 l 661 728 q 683 719 672 726 q 693 700 694 711 m 306 626 q 314 606 304 615 q 335 593 324 596 q 368 608 354 589 q 365 647 381 626 q 328 657 351 665 q 306 626 304 649 z "},"I":{"ha":833,"x_min":1,"x_max":399,"o":"m 397 703 q 399 685 399 700 l 399 649 l 399 578 q 368 546 396 549 l 339 546 l 313 546 l 313 535 l 313 513 l 313 196 l 313 183 q 329 182 313 182 q 388 174 378 182 q 399 131 399 164 l 399 46 q 385 7 399 18 q 370 0 379 1 q 347 0 361 -1 q 331 1 332 1 l 204 1 l 79 1 l 40 1 q 21 3 24 1 q 1 42 1 11 l 1 125 q 8 169 1 161 q 63 182 19 182 l 86 182 l 86 193 l 86 507 l 86 532 l 86 544 q 68 546 86 546 l 35 546 q 11 554 21 546 q 1 576 1 563 l 1 639 l 1 699 q 13 719 3 711 q 36 726 24 726 l 153 726 l 283 726 l 360 726 q 379 724 372 726 q 397 703 396 714 m 233 635 q 225 656 235 646 q 203 667 215 665 q 169 646 179 667 q 176 610 161 625 q 213 603 192 594 q 233 635 235 613 z "},"J":{"ha":833,"x_min":51,"x_max":635,"o":"m 633 696 q 635 674 635 689 l 635 393 q 626 215 635 304 q 596 118 619 164 q 525 44 574 78 q 332 0 463 0 q 135 53 201 0 q 72 133 92 88 q 60 181 64 157 q 57 199 60 185 q 54 222 54 214 q 75 261 51 253 q 118 269 83 267 q 194 279 168 275 q 231 279 222 282 q 256 240 249 271 q 267 203 263 210 q 299 174 279 181 q 343 171 313 168 q 386 189 368 174 q 407 229 401 201 q 413 308 413 256 l 413 550 q 382 544 389 543 q 357 550 367 547 q 308 588 329 558 q 294 644 292 613 q 317 699 296 676 q 421 722 360 746 q 429 724 426 721 l 439 728 q 454 731 450 731 l 532 731 l 594 731 q 622 719 608 729 q 633 696 635 710 m 418 633 q 411 657 422 642 q 393 669 404 665 q 359 655 372 674 q 360 618 346 636 q 393 606 372 601 q 410 616 401 607 q 418 633 419 625 z "},"K":{"ha":833,"x_min":-1,"x_max":686,"o":"m 682 22 q 679 7 686 17 q 664 1 674 1 l 642 1 l 524 1 q 456 4 464 1 q 425 26 433 13 q 415 48 421 33 q 408 65 410 63 q 374 146 401 81 q 343 217 354 193 q 319 271 336 235 q 307 294 314 289 q 275 289 294 308 q 243 254 253 267 q 226 226 229 239 q 224 193 224 215 l 224 122 l 224 60 l 224 32 q 203 4 222 14 q 178 1 194 1 l 64 1 q 51 1 61 1 q 37 1 42 0 q 24 3 32 1 q 12 8 17 4 q 4 18 7 11 q -1 53 -1 26 l -1 229 l -1 481 l -1 668 q 0 699 -1 689 q 24 725 6 721 q 50 726 28 726 l 165 726 l 192 726 q 221 708 210 726 q 223 703 222 707 q 225 699 224 700 q 231 697 226 697 q 239 703 233 699 l 246 708 q 282 722 272 719 q 351 704 324 732 q 374 675 363 693 q 387 668 378 669 q 401 671 396 667 q 413 687 407 675 q 424 703 419 699 q 456 722 435 718 q 529 726 469 726 l 631 726 q 657 713 653 726 q 649 686 660 701 l 604 625 l 488 463 q 476 439 478 451 q 482 408 474 422 l 506 363 q 560 257 524 326 q 615 151 597 188 q 635 111 622 138 q 660 63 649 85 q 682 22 671 42 m 328 646 q 319 665 329 657 q 297 674 308 674 q 265 654 274 674 q 274 618 257 632 q 311 613 290 603 q 328 646 328 622 m 308 551 q 285 560 308 556 q 250 569 260 563 q 225 574 229 586 l 225 546 q 224 518 225 538 q 224 489 224 499 q 225 461 224 465 q 233 451 226 451 q 246 458 240 450 q 267 486 253 467 q 297 528 286 514 q 308 551 308 544 z "},"L":{"ha":833,"x_min":1,"x_max":574,"o":"m 571 150 q 572 129 572 143 l 572 85 q 573 68 572 82 q 573 48 574 54 q 570 31 572 42 q 565 15 568 19 q 553 5 561 10 q 535 0 546 0 l 429 0 l 72 0 l 38 0 q 4 22 13 0 q 1 46 1 29 l 1 90 l 1 451 l 1 690 q 36 725 1 722 l 99 725 l 182 725 q 194 724 190 725 q 204 721 199 724 q 208 718 206 719 q 211 715 210 717 q 217 713 213 714 q 224 713 222 713 q 242 708 225 713 q 289 669 268 700 q 299 611 304 644 q 272 560 294 578 q 249 543 263 550 q 237 540 246 542 q 225 536 228 538 q 222 510 222 533 l 222 332 l 222 253 q 224 217 222 219 q 258 196 232 196 l 319 196 l 499 196 q 536 193 528 196 q 571 150 571 182 m 179 624 q 187 603 178 613 q 207 592 196 594 q 240 608 228 589 q 238 644 251 626 q 203 656 222 663 q 185 644 193 654 q 179 624 178 635 z "},"M":{"ha":833,"x_min":0,"x_max":771,"o":"m 769 697 q 771 683 771 693 l 771 653 l 771 392 l 771 106 l 771 38 q 764 15 768 22 q 732 1 753 1 l 611 1 q 581 24 589 1 q 578 49 578 32 l 578 317 l 578 342 q 575 351 578 347 q 567 353 572 354 q 554 340 563 353 q 546 315 549 333 l 525 253 q 504 187 518 231 q 483 121 490 143 q 474 94 476 100 q 435 68 463 74 l 383 68 q 333 69 350 68 q 296 97 310 71 q 286 124 293 103 l 244 256 q 222 321 233 285 l 214 350 q 200 354 208 358 q 192 342 192 350 l 192 314 l 192 174 l 192 47 q 189 22 192 31 q 157 1 181 1 l 35 1 q 0 39 0 1 l 0 243 l 0 549 l 0 657 q 1 703 0 699 q 10 718 4 713 q 25 725 15 724 q 41 727 35 726 q 60 727 47 728 q 75 726 72 726 l 211 726 q 242 718 231 726 q 256 701 251 713 q 258 695 257 699 q 261 688 260 692 q 264 681 263 683 q 268 667 265 678 q 274 648 271 656 q 283 639 278 640 q 297 647 293 635 q 302 657 299 650 q 308 668 306 664 q 389 711 340 713 q 467 660 442 707 l 467 658 q 488 639 478 632 q 490 644 489 640 q 493 652 492 647 q 496 658 494 657 q 501 672 497 661 q 506 690 504 683 q 533 722 513 714 q 565 728 544 728 q 706 726 613 726 l 740 726 q 761 717 751 725 q 769 697 771 708 m 353 614 q 363 594 353 603 q 383 585 374 585 q 415 606 406 585 q 407 642 424 628 q 369 646 389 658 q 353 614 353 638 m 461 549 q 449 551 457 556 q 436 542 442 547 q 369 526 403 521 q 336 540 360 529 l 321 551 q 317 557 319 553 q 314 558 315 558 l 311 558 q 308 547 307 556 q 309 542 308 546 q 311 536 310 538 l 332 475 q 374 349 346 432 q 383 324 378 326 q 388 324 386 322 q 392 330 390 326 q 394 336 393 333 q 396 342 394 339 l 433 463 q 442 490 436 469 q 453 522 449 511 q 461 549 461 544 z "},"N":{"ha":833,"x_min":-1,"x_max":694,"o":"m 693 699 q 694 675 694 696 l 694 326 l 694 35 q 685 11 694 21 q 664 0 676 1 l 601 0 l 501 0 q 453 7 465 0 q 428 29 436 17 q 414 50 422 36 q 374 117 386 94 q 304 232 313 217 l 250 319 q 232 349 239 339 q 218 363 225 363 q 211 329 211 363 l 211 247 l 211 56 q 206 15 211 25 q 157 0 197 0 l 58 0 q 10 11 18 0 q 0 42 0 22 l 0 88 l 0 478 l 0 646 q -1 664 0 647 q -1 688 -1 681 q 4 706 0 694 q 17 721 8 717 q 69 726 26 726 l 172 726 q 225 724 214 726 q 275 681 254 715 q 286 690 279 688 q 329 711 311 710 q 372 710 347 715 q 417 680 397 703 q 438 631 436 657 q 389 539 442 568 q 383 535 388 538 q 378 533 379 533 q 374 530 376 532 q 372 525 371 528 q 374 518 374 522 q 390 491 378 508 q 404 468 401 474 q 449 394 443 404 q 472 361 465 365 q 482 382 482 364 l 482 436 l 482 610 l 482 675 q 485 706 482 699 q 522 726 494 726 l 597 726 l 660 726 q 679 719 669 726 q 693 699 693 711 m 368 597 q 372 640 389 618 q 338 651 358 658 q 314 624 317 644 q 332 592 311 601 q 368 597 353 582 z "},"O":{"ha":833,"x_min":-11,"x_max":750,"o":"m 749 428 q 750 371 750 408 q 693 144 750 232 q 513 17 625 43 q 397 0 446 0 q 281 8 328 0 q 224 21 254 13 q 169 44 206 28 q 81 118 124 64 q 24 218 46 161 q 1 335 7 264 q 42 572 -11 472 q 113 664 69 625 q 215 725 151 699 q 453 744 318 764 q 660 646 590 725 l 682 621 q 690 608 685 617 q 697 597 696 600 q 724 543 717 568 q 740 488 735 515 q 749 428 747 458 m 339 660 q 347 640 338 649 q 367 628 356 631 q 401 643 386 622 q 406 661 406 649 q 399 679 406 672 q 383 692 394 688 q 363 692 372 696 q 345 679 353 689 q 339 660 338 669 m 528 383 q 527 397 528 389 q 526 411 526 406 q 497 519 524 472 q 403 578 468 568 q 294 558 339 588 q 232 465 249 529 q 224 350 218 417 q 249 239 229 276 q 336 172 281 182 q 447 183 401 160 q 514 269 496 207 q 528 383 521 290 z "},"P":{"ha":833,"x_min":1,"x_max":618,"o":"m 617 517 q 614 461 618 507 q 600 403 613 438 q 571 353 590 382 q 479 289 544 313 q 365 269 431 272 l 299 269 q 244 265 253 269 q 226 224 226 256 l 226 165 l 226 90 q 227 73 226 85 q 228 51 228 61 q 226 33 228 42 q 210 6 225 15 q 165 0 200 0 l 79 0 l 31 0 q 1 35 1 6 l 1 53 l 1 169 l 1 526 l 1 658 q 13 718 1 708 q 46 726 24 726 l 104 726 l 282 726 q 324 727 289 726 q 372 727 358 728 q 411 724 385 726 q 458 717 438 722 q 497 706 478 713 q 585 632 554 685 q 617 517 617 579 m 242 649 q 250 628 240 638 q 271 615 260 618 q 304 633 293 613 q 301 671 315 654 q 264 681 285 690 q 248 667 256 678 q 242 649 240 657 m 399 503 q 371 558 400 533 q 314 578 350 575 q 263 579 293 583 q 228 550 232 575 q 226 485 226 539 q 232 431 226 439 q 253 417 242 418 l 282 417 q 338 422 314 417 q 385 453 367 429 q 399 503 399 472 z "},"Q":{"ha":833,"x_min":-3,"x_max":769,"o":"m 764 114 q 760 93 769 106 q 740 58 750 75 q 706 6 717 14 q 692 0 700 0 q 679 3 685 0 q 665 11 674 6 q 654 18 657 17 q 603 53 636 28 q 551 75 569 75 q 536 72 546 75 q 522 68 526 68 q 488 58 514 65 q 425 51 465 54 q 299 56 361 47 q 71 183 156 74 q 0 431 -3 282 q 76 676 6 589 q 179 761 122 732 q 307 800 238 789 q 439 801 368 808 q 504 790 486 794 q 565 768 529 783 q 670 693 625 744 q 735 579 715 642 q 757 447 754 517 q 746 313 757 364 q 696 193 728 242 q 693 168 686 178 q 717 150 701 158 q 744 135 731 140 q 764 114 757 128 m 340 707 q 349 686 339 696 q 369 675 358 676 q 403 693 393 672 q 397 731 414 714 q 360 738 382 746 q 340 707 339 729 m 531 419 l 531 454 q 521 525 531 483 q 489 586 511 567 q 464 610 469 606 q 433 624 451 618 q 364 633 392 636 q 251 560 286 625 q 231 492 235 529 q 226 422 225 444 q 228 389 228 413 q 232 353 229 365 q 254 285 244 301 q 363 218 288 228 l 389 218 q 410 222 406 218 q 399 240 417 232 q 372 260 393 244 q 346 303 335 282 l 371 347 q 388 368 379 365 q 414 363 396 372 l 444 342 q 472 324 464 331 q 485 315 475 322 q 500 306 494 307 q 513 313 508 304 q 522 335 518 321 q 525 351 525 350 q 531 419 531 374 z "},"R":{"ha":833,"x_min":1,"x_max":703,"o":"m 700 26 q 700 10 703 21 q 685 1 697 4 l 664 1 l 549 1 q 481 4 489 1 q 439 43 456 13 q 386 140 389 135 q 343 221 364 186 q 306 274 317 263 q 243 296 285 296 q 228 283 232 296 q 226 258 226 275 l 226 54 l 226 33 q 210 6 225 17 q 183 1 201 1 l 135 1 l 36 1 q 11 10 21 1 q 1 35 1 19 l 1 160 l 1 403 l 1 622 l 1 683 q 14 719 1 711 q 63 726 22 726 l 167 726 l 369 726 q 508 715 456 726 q 579 686 553 706 q 629 631 606 668 q 653 486 667 568 q 628 418 644 442 q 578 363 603 381 q 547 343 558 349 q 530 336 542 340 q 513 329 518 332 q 506 313 489 321 l 535 297 q 549 286 542 293 q 560 274 556 279 q 573 259 565 268 q 583 246 581 250 q 594 232 586 242 q 604 215 601 222 q 607 209 606 213 q 610 201 608 206 q 614 196 613 197 l 667 93 q 690 47 683 63 q 700 26 699 33 m 310 651 q 318 631 308 640 q 339 619 328 621 q 370 638 360 618 q 367 674 381 657 q 331 682 351 692 q 310 651 307 674 m 431 507 q 400 561 432 539 q 336 574 379 574 l 264 574 q 226 547 231 574 l 226 522 l 226 474 q 228 451 226 458 q 246 431 232 438 q 269 426 254 426 l 315 426 q 365 431 340 426 q 414 457 394 436 q 431 507 431 475 z "},"S":{"ha":833,"x_min":-3,"x_max":658,"o":"m 654 274 q 643 178 658 226 q 597 94 628 132 q 561 61 592 89 q 521 36 557 57 q 475 18 496 24 q 426 7 438 8 q 331 0 374 0 q 229 8 296 0 q 136 36 182 14 q 13 182 51 74 q 1 231 3 218 q 17 265 -3 254 q 51 269 24 269 l 122 274 q 149 274 132 274 q 175 275 167 275 q 208 264 194 278 q 218 243 213 258 q 226 224 225 226 q 254 189 236 203 q 343 160 289 160 q 422 189 394 160 q 436 229 438 207 q 418 269 435 251 q 333 310 401 289 q 278 324 314 315 q 236 335 242 333 q 143 365 186 349 q 66 426 97 385 q 31 515 35 467 q 88 678 24 614 q 257 751 143 733 q 353 756 306 758 q 454 742 418 753 q 544 703 511 724 q 607 631 582 678 q 626 585 621 608 q 632 542 635 549 q 617 526 628 532 q 599 519 607 521 q 573 518 590 518 q 553 518 556 518 q 481 515 528 518 q 447 518 454 515 q 418 551 426 526 q 394 588 410 572 q 310 614 361 619 q 242 576 251 607 q 239 544 238 560 q 267 510 243 524 q 353 481 285 499 q 446 457 418 465 q 468 450 451 456 q 493 442 485 444 q 533 422 513 435 q 578 396 569 403 q 613 363 582 393 q 654 274 642 329 m 297 681 q 306 658 296 668 q 328 649 317 649 q 360 668 351 647 q 353 706 369 689 q 317 711 338 721 q 297 681 296 701 z "},"T":{"ha":833,"x_min":0,"x_max":682,"o":"m 681 700 q 682 679 682 697 l 682 635 q 681 572 682 579 q 643 546 675 546 l 489 546 q 453 517 457 546 l 453 490 l 453 335 l 453 33 q 422 0 453 3 l 361 0 l 272 0 q 233 17 243 0 q 228 47 228 26 l 228 104 l 228 290 l 228 467 q 228 486 228 469 q 228 510 229 503 q 224 528 228 518 q 210 543 219 538 q 158 546 204 546 l 63 546 q 15 553 26 546 q 0 596 0 561 l 0 685 q 24 724 0 714 q 47 725 26 725 l 99 725 l 471 725 l 618 725 l 647 725 q 664 721 656 725 q 674 713 669 719 q 678 706 676 710 q 681 700 679 701 m 375 650 q 366 671 376 661 q 344 682 356 681 q 312 664 322 685 q 317 626 301 643 q 354 619 332 610 q 375 650 376 628 z "},"U":{"ha":833,"x_min":0,"x_max":675,"o":"m 674 693 q 675 672 675 690 l 675 631 l 675 346 l 675 281 q 657 182 675 242 q 536 36 625 88 q 344 0 471 0 q 247 7 300 0 q 158 26 196 14 q 82 79 124 40 q 28 156 56 106 q 13 201 22 165 q 3 251 8 214 q 0 318 0 274 l 0 593 l 0 681 q 13 708 0 697 q 44 718 24 718 l 174 718 q 206 707 194 718 q 217 689 213 700 q 218 674 217 678 q 225 669 222 669 l 236 669 q 269 683 253 669 q 308 707 303 706 q 350 710 336 713 q 418 664 397 703 q 415 571 446 613 q 338 526 386 526 q 279 549 304 526 q 269 556 274 551 q 258 564 263 563 q 222 564 231 568 q 218 547 218 563 l 218 494 l 218 347 q 221 269 218 286 q 271 199 231 219 q 361 185 314 176 q 436 226 408 192 q 458 306 458 256 l 458 543 l 458 664 l 458 683 q 486 715 461 708 q 524 718 493 718 l 599 718 l 639 718 q 661 710 650 717 q 674 693 672 703 m 304 619 q 313 599 303 608 q 333 588 322 589 q 365 603 354 585 q 363 639 376 622 q 326 650 347 657 q 304 619 301 640 z "},"V":{"ha":833,"x_min":-1,"x_max":731,"o":"m 729 711 q 726 694 731 708 q 697 610 717 667 q 665 524 676 553 l 565 244 q 528 138 553 207 q 493 43 503 69 q 467 7 483 15 q 436 0 454 0 l 372 0 l 303 0 q 271 1 275 0 q 238 26 247 8 l 233 36 q 168 224 213 99 q 119 364 151 271 q 69 504 86 457 l 4 690 q 2 695 3 692 q 1 700 1 699 q 3 717 -1 710 q 19 724 8 724 l 133 724 l 194 724 q 222 719 214 724 q 247 685 238 711 q 250 674 247 683 q 256 658 253 664 q 261 651 256 656 q 267 656 263 653 q 272 660 271 658 q 282 674 278 665 q 332 717 313 711 q 381 721 356 725 q 438 686 415 717 q 457 619 461 656 q 425 563 453 588 q 369 539 399 539 q 329 546 349 538 l 313 554 q 303 555 310 556 q 293 553 296 554 q 290 549 290 551 q 294 538 290 546 l 307 497 q 322 450 311 485 q 339 396 332 415 q 344 380 340 392 q 350 361 347 368 q 357 343 354 346 q 376 364 368 338 l 378 367 q 485 694 421 504 q 521 724 493 719 q 540 724 529 724 q 563 724 550 724 q 583 724 576 724 l 686 724 q 729 711 731 724 m 332 632 q 340 610 332 621 q 357 599 347 600 q 392 613 378 594 q 392 649 406 631 q 357 663 378 667 q 342 651 349 661 q 335 642 338 647 q 333 637 333 640 q 332 632 333 633 z "},"W":{"ha":833,"x_min":-6,"x_max":928,"o":"m 925 722 q 919 681 928 715 q 888 576 910 650 q 854 461 867 501 l 771 174 q 726 24 740 74 q 717 9 724 14 q 701 2 711 4 q 684 0 692 0 q 664 1 676 0 q 647 1 651 1 q 610 8 619 1 q 597 29 604 13 l 493 257 q 472 279 486 274 q 436 264 450 289 q 422 235 431 254 q 411 211 414 217 q 403 194 408 206 q 396 178 399 183 q 374 129 389 161 q 351 82 358 97 q 324 22 339 53 q 300 3 315 7 q 246 1 294 1 q 206 8 214 1 q 188 47 197 14 l 125 271 q 43 560 78 436 q 1 703 6 689 q 18 738 -6 728 q 56 740 24 740 l 129 740 l 169 740 q 196 689 183 738 l 242 551 q 251 519 244 540 q 263 488 258 499 q 268 471 264 482 q 274 454 272 460 q 301 439 285 433 q 319 463 311 443 l 369 588 q 381 616 374 597 q 393 644 389 635 q 404 671 400 665 q 440 697 417 689 q 485 697 464 704 q 532 644 515 686 l 578 521 q 595 474 581 513 q 618 414 610 435 q 642 399 625 397 q 660 418 654 400 l 689 521 q 709 592 696 544 q 729 664 722 640 q 743 713 736 692 q 749 733 749 732 q 774 740 754 740 l 842 740 l 896 740 q 911 738 907 740 q 919 731 918 733 q 922 726 921 729 q 925 722 924 724 m 494 617 q 469 647 499 639 q 437 633 449 653 q 439 597 425 614 q 474 587 453 579 q 494 617 494 594 z "},"X":{"ha":833,"x_min":1,"x_max":769,"o":"m 765 19 q 761 6 769 11 q 743 0 753 1 l 688 0 l 608 0 q 591 0 606 0 q 572 0 576 0 q 556 1 567 0 q 538 6 544 3 q 524 15 531 10 q 493 54 522 15 q 481 74 490 58 q 465 99 471 90 q 410 185 421 165 q 372 200 394 211 q 339 158 358 193 l 285 71 q 272 50 281 65 q 257 28 263 35 q 215 3 243 8 q 179 0 204 0 l 104 0 l 36 0 q 7 8 13 0 q 13 35 1 18 l 35 68 l 201 310 q 225 344 213 325 q 236 367 235 360 q 217 429 242 394 q 56 665 72 640 q 49 674 56 667 q 38 688 42 682 q 31 701 35 693 q 27 714 26 708 q 33 724 28 719 q 68 728 40 728 l 142 728 l 206 728 q 240 719 224 728 q 269 689 260 708 q 288 660 276 679 q 301 636 299 642 q 303 641 303 638 q 304 646 304 644 q 319 669 310 658 q 410 693 357 707 q 449 669 431 688 q 471 629 457 661 l 482 649 q 514 704 507 694 q 558 728 531 725 l 603 728 l 686 728 q 729 726 722 728 q 739 697 753 721 q 679 610 725 675 q 586 471 631 535 q 565 439 582 464 q 539 400 547 414 q 538 353 528 379 l 551 332 q 628 221 596 269 q 721 88 660 176 l 751 42 q 765 19 765 28 m 418 613 q 390 643 419 636 q 357 626 368 646 q 361 589 346 604 q 397 581 376 571 q 418 613 418 592 z "},"Y":{"ha":833,"x_min":3,"x_max":771,"o":"m 763 717 q 754 688 771 708 l 556 392 q 506 310 510 324 q 496 190 496 283 q 496 140 496 172 q 496 82 496 108 q 496 33 496 56 q 487 10 496 19 q 463 0 478 0 l 389 0 l 307 0 q 272 31 275 0 l 272 81 l 272 181 q 265 306 272 281 q 253 332 261 318 q 233 364 246 346 q 215 388 219 382 q 17 685 50 635 q 4 714 3 707 q 46 725 7 725 l 204 725 q 256 696 239 725 q 276 661 269 674 q 289 653 285 650 q 294 665 290 653 q 310 693 297 676 q 354 721 326 713 q 417 717 386 731 q 463 674 449 704 q 471 653 469 661 q 478 640 474 640 q 493 661 479 640 q 503 678 496 667 q 514 696 511 690 q 530 714 521 707 q 552 723 539 721 q 574 726 565 725 q 601 726 583 726 q 624 725 618 725 l 721 725 q 763 717 760 725 m 347 632 q 356 612 346 621 q 378 601 367 603 q 408 619 400 600 q 404 654 417 638 q 368 664 392 672 q 347 632 347 654 m 422 543 q 408 546 421 549 q 389 540 400 543 q 353 546 357 540 l 351 546 q 358 524 349 543 q 379 499 374 500 q 403 513 394 493 q 422 543 408 522 z "},"Z":{"ha":833,"x_min":0,"x_max":689,"o":"m 688 147 q 689 110 689 144 l 689 47 q 683 17 689 26 q 654 0 675 0 l 611 0 l 374 0 l 115 0 l 43 0 q 1 22 10 0 q 0 58 0 25 l 0 122 q 22 190 0 167 q 41 209 28 197 q 57 224 54 221 q 140 301 113 276 q 331 482 264 419 q 378 526 364 513 q 385 547 390 539 q 364 553 381 553 l 131 553 l 85 553 l 65 553 q 52 560 57 556 q 44 569 47 565 q 40 582 42 574 q 39 594 39 590 q 39 609 39 599 q 39 622 39 619 l 39 685 q 46 714 39 703 q 74 725 57 725 l 90 725 l 304 725 l 564 725 l 633 725 q 649 724 643 725 q 672 696 668 718 q 674 653 674 692 l 674 597 q 649 538 671 560 q 519 415 626 517 l 332 238 q 290 199 297 206 q 289 175 275 183 q 308 174 290 174 l 543 174 l 643 174 l 661 174 q 688 147 689 165 m 376 639 q 372 663 381 644 q 354 675 367 669 q 319 663 333 682 q 315 625 304 644 q 351 611 328 607 q 369 621 361 613 q 376 639 378 629 z "},"^":{"ha":833,"x_min":0,"x_max":0,"o":""},"a":{"ha":833,"x_min":-4,"x_max":774,"o":"m 769 24 q 769 11 774 18 q 757 1 764 4 q 739 0 751 0 l 582 0 q 562 4 571 0 q 547 14 553 8 q 537 31 542 19 q 530 47 532 42 q 524 67 528 53 q 518 86 519 82 q 479 119 510 117 l 426 119 l 331 119 l 283 119 q 251 99 261 115 q 235 58 242 82 q 222 22 229 33 q 182 0 208 0 l 104 0 l 26 0 q 8 3 14 0 q 1 29 -4 11 q 3 38 1 32 q 7 46 6 43 q 25 90 10 51 l 150 426 q 202 565 168 475 q 249 688 236 654 q 264 711 254 703 q 306 725 279 725 l 468 725 q 522 685 508 725 l 560 586 l 693 232 l 747 86 q 756 65 750 79 q 764 43 761 50 q 767 34 764 42 q 769 24 769 26 m 353 639 q 363 621 353 629 q 383 611 372 613 q 403 617 393 610 q 415 632 413 624 q 406 668 424 653 q 369 672 389 685 q 353 639 353 664 m 454 297 q 450 315 454 307 q 440 349 444 338 q 424 402 435 368 q 410 450 414 436 q 405 467 408 456 q 399 488 401 479 q 393 504 396 497 q 382 518 383 518 q 372 504 376 518 q 328 356 356 456 q 313 308 317 325 q 317 285 310 294 q 338 276 324 276 l 418 276 l 438 276 q 449 285 446 279 q 452 292 451 288 q 454 297 453 296 z "},"b":{"ha":833,"x_min":0,"x_max":663,"o":"m 658 219 q 654 161 663 196 q 594 60 640 97 q 544 25 567 35 q 488 11 535 21 q 243 0 424 0 l 63 0 l 29 0 q 0 35 3 3 l 0 118 l 0 297 l 0 651 l 0 688 q 14 717 3 707 q 47 725 22 725 l 111 725 l 307 725 l 415 725 q 536 697 500 719 q 617 599 604 656 q 611 475 636 526 q 576 426 599 449 l 565 415 l 553 408 q 541 401 551 407 q 528 392 531 396 q 539 376 519 381 q 567 365 551 372 q 615 329 601 347 q 658 219 658 279 m 271 651 q 276 629 265 644 q 296 617 285 618 q 331 631 318 611 q 331 668 344 650 q 296 681 317 688 q 271 651 269 672 m 214 474 q 229 447 214 457 q 254 442 236 442 l 326 442 q 378 454 354 442 q 404 497 399 465 q 396 547 408 526 q 354 574 382 569 q 306 576 324 576 l 263 576 q 240 575 247 576 q 214 539 217 568 l 214 474 m 433 238 q 400 289 438 271 q 336 303 375 303 l 258 303 q 217 281 224 303 q 214 257 214 274 l 214 208 q 233 163 214 174 q 257 160 242 160 l 304 160 q 363 161 353 160 q 417 183 403 167 q 433 238 433 203 z "},"c":{"ha":833,"x_min":-1,"x_max":700,"o":"m 697 236 q 692 200 700 232 q 676 165 686 183 q 569 44 635 85 q 492 14 533 24 q 408 1 464 7 l 325 1 q 242 15 288 3 q 161 47 190 28 q 97 100 124 69 q 47 169 69 131 q 17 246 33 192 q 1 332 7 274 q 1 418 -1 376 q 47 588 8 508 q 165 706 82 657 q 333 750 228 742 q 504 733 432 754 q 642 638 585 708 q 683 567 660 613 q 685 532 694 544 q 661 517 678 521 q 550 493 625 510 q 492 507 503 481 q 451 558 481 533 q 417 576 436 569 q 378 582 408 579 q 297 563 336 589 q 267 536 279 550 q 244 500 261 529 q 226 417 236 482 q 226 331 222 374 q 290 188 236 217 q 328 172 322 174 l 369 168 q 446 190 410 168 q 492 253 472 208 q 498 269 493 256 q 507 289 503 282 q 542 300 519 306 q 638 272 553 299 q 653 267 639 272 q 674 260 668 263 q 687 251 679 258 q 697 236 694 244 m 350 657 q 360 637 349 646 q 383 629 372 628 q 414 651 407 629 q 403 688 421 672 q 365 690 388 703 q 350 657 350 681 z "},"d":{"ha":833,"x_min":0,"x_max":671,"o":"m 667 397 q 667 338 671 368 q 663 276 663 278 q 651 217 661 249 q 632 164 643 182 q 601 115 608 122 q 521 42 568 72 q 406 6 492 24 q 310 0 381 0 l 139 0 l 60 0 l 28 0 q 0 58 0 6 l 0 368 l 0 671 l 0 692 q 29 726 3 719 l 64 726 l 146 726 l 313 726 q 407 721 364 726 q 521 685 468 714 q 545 667 529 679 q 565 651 561 654 q 601 610 572 647 q 631 558 619 588 q 633 551 631 556 q 638 546 636 547 l 642 533 q 646 519 643 529 q 650 506 649 510 q 667 397 667 436 m 285 643 q 292 622 283 632 q 313 610 301 613 q 346 625 332 606 q 351 643 351 631 q 344 663 351 651 q 307 675 332 682 q 291 662 299 672 q 285 643 283 651 m 443 365 q 442 379 443 369 q 442 394 442 389 q 419 499 436 467 q 331 557 392 547 q 279 563 315 560 q 238 556 247 563 q 227 540 231 550 q 224 522 224 529 q 224 499 224 514 q 225 481 225 485 l 225 203 q 236 171 225 181 q 251 164 243 165 q 272 164 258 163 q 289 165 286 165 q 385 185 353 165 q 435 264 417 201 q 442 311 439 279 q 443 365 443 329 z "},"e":{"ha":833,"x_min":1,"x_max":606,"o":"m 603 160 q 604 126 604 158 l 604 56 q 605 44 604 53 q 605 29 606 35 q 603 17 604 24 q 599 6 603 10 q 588 1 594 1 l 531 1 l 254 1 l 29 1 q 1 19 1 1 q 1 34 1 26 q 1 52 1 42 q 1 68 1 63 l 1 324 l 1 606 l 1 686 q 18 717 1 717 l 192 717 l 482 717 l 567 717 l 581 717 q 594 697 594 715 q 594 659 594 683 q 594 615 594 635 q 594 578 594 594 q 579 554 592 560 q 558 551 575 551 l 293 551 l 247 551 q 228 550 231 551 q 221 519 218 546 q 222 467 221 475 q 227 456 224 460 q 237 451 231 453 q 247 449 243 450 q 260 449 251 449 q 271 450 268 450 l 407 450 l 532 450 l 553 450 q 567 429 567 449 l 567 365 q 567 351 567 360 q 568 334 568 342 q 567 321 568 326 q 563 310 565 314 q 553 306 560 307 q 542 303 546 304 q 529 303 538 303 q 518 304 521 304 l 257 304 l 236 304 q 222 282 222 300 l 222 217 l 222 190 q 225 181 222 189 q 243 169 231 169 l 278 169 l 414 169 l 550 169 q 563 170 553 169 q 580 171 574 171 q 593 168 586 171 q 603 160 600 165 m 258 639 q 265 619 257 628 q 285 608 274 611 q 316 625 306 604 q 311 661 326 646 q 277 667 297 674 q 258 639 257 660 z "},"f":{"ha":833,"x_min":0,"x_max":558,"o":"m 557 713 q 558 689 558 711 l 558 638 l 558 590 q 553 568 558 574 q 510 557 544 557 l 303 557 l 253 557 q 228 536 233 553 l 228 499 q 229 464 228 467 q 254 446 233 449 l 310 446 l 508 446 l 524 446 q 546 424 543 443 l 546 392 l 546 339 q 542 314 546 319 q 518 299 535 300 l 457 299 l 261 299 l 244 299 q 228 272 228 292 l 228 190 l 228 26 q 197 0 228 6 l 164 0 l 108 0 l 54 0 l 28 0 q 0 31 0 4 l 0 146 l 0 363 l 0 581 l 0 700 q 25 731 0 728 l 58 731 l 250 731 l 464 731 l 524 731 q 557 713 547 731 m 313 649 q 306 672 314 661 q 286 685 297 682 q 251 669 264 689 q 253 631 239 649 q 289 619 265 614 q 306 631 299 624 q 311 640 308 633 q 313 649 311 647 z "},"g":{"ha":833,"x_min":-3,"x_max":713,"o":"m 711 400 q 713 372 713 397 l 713 311 l 713 171 q 692 103 713 124 q 650 75 685 96 q 606 51 626 61 q 561 31 571 35 q 514 17 550 26 q 417 1 489 8 q 315 3 375 -1 q 132 65 203 10 q 22 229 50 132 q 3 328 7 283 q 3 429 -3 389 q 24 528 10 481 q 72 619 40 576 q 142 689 97 657 q 233 733 179 715 q 331 749 274 746 q 433 749 399 751 q 533 735 500 743 q 578 717 560 728 q 618 690 606 703 q 676 617 654 656 q 672 539 711 547 l 556 518 q 519 513 529 511 q 483 535 497 514 q 413 586 456 576 q 319 583 364 597 q 247 521 276 569 q 219 425 226 485 q 244 232 208 301 q 314 171 267 188 q 414 161 361 154 q 456 172 428 164 q 467 177 460 174 q 476 182 475 181 q 497 192 488 185 q 522 228 517 204 q 510 269 528 253 q 467 275 501 275 l 411 275 q 379 301 383 278 l 379 354 q 381 401 379 397 q 413 426 385 424 l 511 426 l 654 426 l 681 426 q 702 417 692 425 q 711 400 713 410 m 324 661 q 331 640 322 650 q 351 628 340 631 q 385 644 374 624 q 383 682 397 665 q 346 693 367 701 q 324 661 321 683 z "},"h":{"ha":833,"x_min":0,"x_max":694,"o":"m 693 700 q 694 683 694 697 l 694 654 l 694 382 l 694 93 l 694 36 q 678 6 694 14 q 642 0 668 0 l 507 0 q 475 17 483 3 q 469 49 469 25 l 469 192 l 469 251 q 464 281 469 272 q 431 294 453 294 l 371 294 l 257 294 q 240 290 247 294 q 230 278 233 285 q 225 261 226 272 q 223 243 224 250 q 223 224 222 236 q 224 208 224 211 l 224 103 l 224 49 q 210 7 224 17 q 175 0 200 0 l 101 0 l 39 0 q 8 15 17 3 q 0 64 0 25 l 0 326 l 0 622 l 0 690 q 44 728 0 728 l 182 728 q 214 718 203 728 q 224 696 224 708 q 224 683 224 693 q 225 674 224 674 l 249 674 q 269 685 251 675 q 296 704 275 689 q 340 715 314 715 q 367 711 354 715 q 407 686 390 706 q 428 642 424 667 q 422 590 433 615 q 388 550 410 564 q 304 544 342 525 q 282 558 290 550 q 260 574 264 572 q 243 575 254 575 l 225 575 l 225 572 q 224 569 225 571 l 224 507 q 286 472 225 472 l 428 472 q 458 482 449 472 q 469 514 469 493 l 469 656 q 469 669 469 658 q 469 684 469 679 q 471 697 469 689 q 475 710 472 706 q 483 720 478 715 q 497 726 489 725 q 538 728 503 728 l 617 728 l 661 728 q 683 719 672 726 q 693 700 694 711 m 306 626 q 314 606 304 615 q 335 593 324 596 q 368 608 354 589 q 365 647 381 626 q 328 657 351 665 q 306 626 304 649 z "},"i":{"ha":833,"x_min":1,"x_max":399,"o":"m 397 703 q 399 685 399 700 l 399 649 l 399 578 q 368 546 396 549 l 339 546 l 313 546 l 313 535 l 313 513 l 313 196 l 313 183 q 329 182 313 182 q 388 174 378 182 q 399 131 399 164 l 399 46 q 385 7 399 18 q 370 0 379 1 q 347 0 361 -1 q 331 1 332 1 l 204 1 l 79 1 l 40 1 q 21 3 24 1 q 1 42 1 11 l 1 125 q 8 169 1 161 q 63 182 19 182 l 86 182 l 86 193 l 86 507 l 86 532 l 86 544 q 68 546 86 546 l 35 546 q 11 554 21 546 q 1 576 1 563 l 1 639 l 1 699 q 13 719 3 711 q 36 726 24 726 l 153 726 l 283 726 l 360 726 q 379 724 372 726 q 397 703 396 714 m 233 635 q 225 656 235 646 q 203 667 215 665 q 169 646 179 667 q 176 610 161 625 q 213 603 192 594 q 233 635 235 613 z "},"j":{"ha":833,"x_min":51,"x_max":635,"o":"m 633 696 q 635 674 635 689 l 635 393 q 626 215 635 304 q 596 118 619 164 q 525 44 574 78 q 332 0 463 0 q 135 53 201 0 q 72 133 92 88 q 60 181 64 157 q 57 199 60 185 q 54 222 54 214 q 75 261 51 253 q 118 269 83 267 q 194 279 168 275 q 231 279 222 282 q 256 240 249 271 q 267 203 263 210 q 299 174 279 181 q 343 171 313 168 q 386 189 368 174 q 407 229 401 201 q 413 308 413 256 l 413 550 q 382 544 389 543 q 357 550 367 547 q 308 588 329 558 q 294 644 292 613 q 317 699 296 676 q 421 722 360 746 q 429 724 426 721 l 439 728 q 454 731 450 731 l 532 731 l 594 731 q 622 719 608 729 q 633 696 635 710 m 418 633 q 411 657 422 642 q 393 669 404 665 q 359 655 372 674 q 360 618 346 636 q 393 606 372 601 q 410 616 401 607 q 418 633 419 625 z "},"k":{"ha":833,"x_min":3,"x_max":692,"o":"m 685 22 q 682 7 692 17 q 667 1 676 1 l 644 1 l 526 1 q 458 4 467 1 q 428 26 439 11 q 418 48 424 33 q 411 65 413 63 l 378 146 q 347 217 367 169 q 324 271 331 253 q 311 294 313 293 q 279 289 296 310 q 246 254 250 260 q 229 226 231 232 q 226 193 226 215 l 226 122 l 226 60 l 226 32 q 207 4 224 13 q 181 1 197 1 l 67 1 q 55 1 64 1 q 41 1 46 0 q 28 3 36 1 q 16 8 21 4 q 7 18 11 11 q 3 53 3 26 l 3 229 l 3 481 l 3 668 q 4 699 3 693 q 28 725 7 721 q 53 726 31 726 l 168 726 l 194 726 q 224 708 214 726 q 226 703 225 707 q 229 699 228 700 q 235 697 231 697 q 243 703 238 699 q 250 708 249 708 q 286 722 272 719 q 356 704 328 732 q 378 675 371 688 q 406 671 390 660 q 417 688 411 675 q 426 703 424 700 q 460 722 439 718 q 533 726 474 726 l 635 726 q 660 713 656 726 q 651 686 663 701 q 632 659 649 682 q 607 625 615 636 q 492 463 514 494 q 481 439 481 449 q 486 408 478 419 l 510 363 q 564 256 528 326 q 618 151 600 186 l 685 22 m 332 646 q 322 665 333 657 q 300 674 311 674 q 269 654 275 674 q 278 618 261 632 q 314 613 296 603 q 332 646 332 622 m 313 551 q 289 560 311 556 q 253 569 264 563 q 229 574 233 585 l 229 546 q 227 517 228 536 q 226 489 226 499 q 228 461 226 469 q 236 451 229 451 q 249 458 243 450 q 269 486 251 461 q 300 528 281 500 q 313 551 313 547 z "},"l":{"ha":833,"x_min":1,"x_max":574,"o":"m 571 150 q 572 129 572 143 l 572 85 q 573 68 572 82 q 573 48 574 54 q 570 31 572 42 q 565 15 568 19 q 553 5 561 10 q 535 0 546 0 l 429 0 l 72 0 l 38 0 q 4 22 13 0 q 1 46 1 29 l 1 90 l 1 451 l 1 690 q 36 725 1 722 l 99 725 l 182 725 q 194 724 190 725 q 204 721 199 724 q 208 718 206 719 q 211 715 210 717 q 217 713 213 714 q 224 713 222 713 q 242 708 225 713 q 289 669 268 700 q 299 611 304 644 q 272 560 294 578 q 249 543 263 550 q 237 540 246 542 q 225 536 228 538 q 222 510 222 533 l 222 332 l 222 253 q 224 217 222 219 q 258 196 232 196 l 319 196 l 499 196 q 536 193 528 196 q 571 150 571 182 m 179 624 q 187 603 178 613 q 207 592 196 594 q 240 608 228 589 q 238 644 251 626 q 203 656 222 663 q 185 644 193 654 q 179 624 178 635 z "},"m":{"ha":833,"x_min":0,"x_max":771,"o":"m 769 697 q 771 683 771 693 l 771 653 l 771 392 l 771 106 l 771 38 q 764 15 768 22 q 732 1 753 1 l 611 1 q 581 24 589 1 q 578 49 578 32 l 578 317 l 578 342 q 575 351 578 347 q 567 353 572 354 q 554 340 563 353 q 546 315 549 333 l 525 253 q 504 187 518 231 q 483 121 490 143 q 474 94 476 100 q 435 68 463 74 l 383 68 q 333 69 350 68 q 296 97 310 71 q 286 124 293 103 l 244 256 q 222 321 233 285 l 214 350 q 200 354 208 358 q 192 342 192 350 l 192 314 l 192 174 l 192 47 q 189 22 192 31 q 157 1 181 1 l 35 1 q 0 39 0 1 l 0 243 l 0 549 l 0 657 q 1 703 0 699 q 10 718 4 713 q 25 725 15 724 q 41 727 35 726 q 60 727 47 728 q 75 726 72 726 l 211 726 q 242 718 231 726 q 256 701 251 713 q 258 695 257 699 q 261 688 260 692 q 264 681 263 683 q 268 667 265 678 q 274 648 271 656 q 283 639 278 640 q 297 647 293 635 q 302 657 299 650 q 308 668 306 664 q 389 711 340 713 q 467 660 442 707 l 467 658 q 488 639 478 632 q 490 644 489 640 q 493 652 492 647 q 496 658 494 657 q 501 672 497 661 q 506 690 504 683 q 533 722 513 714 q 565 728 544 728 q 706 726 613 726 l 740 726 q 761 717 751 725 q 769 697 771 708 m 353 614 q 363 594 353 603 q 383 585 374 585 q 415 606 406 585 q 407 642 424 628 q 369 646 389 658 q 353 614 353 638 m 461 549 q 449 551 457 556 q 436 542 442 547 q 369 526 403 521 q 336 540 360 529 l 321 551 q 317 557 319 553 q 314 558 315 558 l 311 558 q 308 547 307 556 q 309 542 308 546 q 311 536 310 538 l 332 475 q 374 349 346 432 q 383 324 378 326 q 388 324 386 322 q 392 330 390 326 q 394 336 393 333 q 396 342 394 339 l 433 463 q 442 490 436 469 q 453 522 449 511 q 461 549 461 544 z "},"n":{"ha":833,"x_min":-1,"x_max":694,"o":"m 693 699 q 694 675 694 696 l 694 326 l 694 35 q 685 11 694 21 q 664 0 676 1 l 601 0 l 501 0 q 453 7 465 0 q 428 29 436 17 q 414 50 422 36 q 374 117 386 94 q 304 232 313 217 l 250 319 q 232 349 239 339 q 218 363 225 363 q 211 329 211 363 l 211 247 l 211 56 q 206 15 211 25 q 157 0 197 0 l 58 0 q 10 11 18 0 q 0 42 0 22 l 0 88 l 0 478 l 0 646 q -1 664 0 647 q -1 688 -1 681 q 4 706 0 694 q 17 721 8 717 q 69 726 26 726 l 172 726 q 225 724 214 726 q 275 681 254 715 q 286 690 279 688 q 329 711 311 710 q 372 710 347 715 q 417 680 397 703 q 438 631 436 657 q 389 539 442 568 q 383 535 388 538 q 378 533 379 533 q 374 530 376 532 q 372 525 371 528 q 374 518 374 522 q 390 491 378 508 q 404 468 401 474 q 449 394 443 404 q 472 361 465 365 q 482 382 482 364 l 482 436 l 482 610 l 482 675 q 485 706 482 699 q 522 726 494 726 l 597 726 l 660 726 q 679 719 669 726 q 693 699 693 711 z "},"o":{"ha":833,"x_min":-11,"x_max":750,"o":"m 749 428 q 750 371 750 408 q 693 144 750 232 q 513 17 625 43 q 397 0 446 0 q 281 8 328 0 q 224 21 254 13 q 169 44 206 28 q 81 118 124 64 q 24 218 46 161 q 1 335 7 264 q 42 572 -11 472 q 113 664 69 625 q 215 725 151 699 q 453 744 318 764 q 660 646 590 725 l 682 621 q 690 608 685 617 q 697 597 696 600 q 724 543 717 568 q 740 488 735 515 q 749 428 747 458 m 339 660 q 347 640 338 649 q 367 628 356 631 q 401 643 386 622 q 406 661 406 649 q 399 679 406 672 q 383 692 394 688 q 363 692 372 696 q 345 679 353 689 q 339 660 338 669 m 528 383 q 527 397 528 389 q 526 411 526 406 q 497 519 524 472 q 403 578 468 568 q 294 558 339 588 q 232 465 249 529 q 224 350 218 417 q 249 239 229 276 q 336 172 281 182 q 447 183 401 160 q 514 269 496 207 q 528 383 521 290 z "},"p":{"ha":833,"x_min":1,"x_max":618,"o":"m 617 517 q 614 461 618 507 q 600 403 613 438 q 571 353 590 382 q 479 289 544 313 q 365 269 431 272 l 299 269 q 244 265 253 269 q 226 224 226 256 l 226 165 l 226 90 q 227 73 226 85 q 228 51 228 61 q 226 33 228 42 q 210 6 225 15 q 165 0 200 0 l 79 0 l 31 0 q 1 35 1 6 l 1 53 l 1 169 l 1 526 l 1 658 q 13 718 1 708 q 46 726 24 726 l 104 726 l 282 726 q 324 727 289 726 q 372 727 358 728 q 411 724 385 726 q 458 717 438 722 q 497 706 478 713 q 585 632 554 685 q 617 517 617 579 m 242 649 q 250 628 240 638 q 271 615 260 618 q 304 633 293 613 q 301 671 315 654 q 264 681 285 690 q 248 667 256 678 q 242 649 240 657 m 399 503 q 371 558 400 533 q 314 578 350 575 q 263 579 293 583 q 228 550 232 575 q 226 485 226 539 q 232 431 226 439 q 253 417 242 418 l 282 417 q 338 422 314 417 q 385 453 367 429 q 399 503 399 472 z "},"q":{"ha":833,"x_min":-3,"x_max":769,"o":"m 764 114 q 760 93 769 106 q 740 58 750 75 q 706 6 717 14 q 692 0 700 0 q 679 3 685 0 q 665 11 674 6 q 654 18 657 17 q 603 53 636 28 q 551 75 569 75 q 536 72 546 75 q 522 68 526 68 q 488 58 514 65 q 425 51 465 54 q 299 56 361 47 q 71 183 156 74 q 0 431 -3 282 q 76 676 6 589 q 179 761 122 732 q 307 800 238 789 q 439 801 368 808 q 504 790 486 794 q 565 768 529 783 q 670 693 625 744 q 735 579 715 642 q 757 447 754 517 q 746 313 757 364 q 696 193 728 242 q 693 168 686 178 q 717 150 701 158 q 744 135 731 140 q 764 114 757 128 m 340 707 q 349 686 339 696 q 369 675 358 676 q 403 693 393 672 q 397 731 414 714 q 360 738 382 746 q 340 707 339 729 m 531 419 l 531 454 q 521 525 531 483 q 489 586 511 567 q 464 610 469 606 q 433 624 451 618 q 364 633 392 636 q 251 560 286 625 q 231 492 235 529 q 226 422 225 444 q 228 389 228 413 q 232 353 229 365 q 254 285 244 301 q 363 218 288 228 l 389 218 q 410 222 406 218 q 399 240 417 232 q 372 260 393 244 q 346 303 335 282 l 371 347 q 388 368 379 365 q 414 363 396 372 l 444 342 q 472 324 464 331 q 485 315 475 322 q 500 306 494 307 q 513 313 508 304 q 522 335 518 321 q 525 351 525 350 q 531 419 531 374 z "},"r":{"ha":833,"x_min":1,"x_max":703,"o":"m 700 26 q 700 10 703 21 q 685 1 697 4 l 664 1 l 549 1 q 481 4 489 1 q 439 43 456 13 q 386 140 389 135 q 343 221 364 186 q 306 274 317 263 q 243 296 285 296 q 228 283 232 296 q 226 258 226 275 l 226 54 l 226 33 q 210 6 225 17 q 183 1 201 1 l 135 1 l 36 1 q 11 10 21 1 q 1 35 1 19 l 1 160 l 1 403 l 1 622 l 1 683 q 14 719 1 711 q 63 726 22 726 l 167 726 l 369 726 q 508 715 456 726 q 579 686 553 706 q 629 631 606 668 q 653 486 667 568 q 628 418 644 442 q 578 363 603 381 q 547 343 558 349 q 530 336 542 340 q 513 329 518 332 q 506 313 489 321 l 535 297 q 549 286 542 293 q 560 274 556 279 q 573 259 565 268 q 583 246 581 250 q 594 232 586 242 q 604 215 601 222 q 607 209 606 213 q 610 201 608 206 q 614 196 613 197 l 667 93 q 690 47 683 63 q 700 26 699 33 m 310 651 q 318 631 308 640 q 339 619 328 621 q 370 638 360 618 q 367 674 381 657 q 331 682 351 692 q 310 651 307 674 m 431 507 q 400 561 432 539 q 336 574 379 574 l 264 574 q 226 547 231 574 l 226 522 l 226 474 q 228 451 226 458 q 246 431 232 438 q 269 426 254 426 l 315 426 q 365 431 340 426 q 414 457 394 436 q 431 507 431 475 z "},"s":{"ha":833,"x_min":-3,"x_max":658,"o":"m 654 274 q 643 178 658 226 q 597 94 628 132 q 561 61 592 89 q 521 36 557 57 q 475 18 496 24 q 426 7 438 8 q 331 0 374 0 q 229 8 296 0 q 136 36 182 14 q 13 182 51 74 q 1 231 3 218 q 17 265 -3 254 q 51 269 24 269 l 122 274 q 149 274 132 274 q 175 275 167 275 q 208 264 194 278 q 218 243 213 258 q 226 224 225 226 q 254 189 236 203 q 343 160 289 160 q 422 189 394 160 q 436 229 438 207 q 418 269 435 251 q 333 310 401 289 q 278 324 314 315 q 236 335 242 333 q 143 365 186 349 q 66 426 97 385 q 31 515 35 467 q 88 678 24 614 q 257 751 143 733 q 353 756 306 758 q 454 742 418 753 q 544 703 511 724 q 607 631 582 678 q 626 585 621 608 q 632 542 635 549 q 617 526 628 532 q 599 519 607 521 q 573 518 590 518 q 553 518 556 518 q 481 515 528 518 q 447 518 454 515 q 418 551 426 526 q 394 588 410 572 q 310 614 361 619 q 242 576 251 607 q 239 544 238 560 q 267 510 243 524 q 353 481 285 499 q 446 457 418 465 q 468 450 451 456 q 493 442 485 444 q 533 422 513 435 q 578 396 569 403 q 613 363 582 393 q 654 274 642 329 m 297 681 q 306 658 296 668 q 328 649 317 649 q 360 668 351 647 q 353 706 369 689 q 317 711 338 721 q 297 681 296 701 z "},"t":{"ha":833,"x_min":0,"x_max":682,"o":"m 681 700 q 682 679 682 697 l 682 635 q 681 572 682 579 q 643 546 675 546 l 489 546 q 453 517 457 546 l 453 490 l 453 335 l 453 33 q 422 0 453 3 l 361 0 l 272 0 q 233 17 243 0 q 228 47 228 26 l 228 104 l 228 290 l 228 467 q 228 486 228 469 q 228 510 229 503 q 224 528 228 518 q 210 543 219 538 q 158 546 204 546 l 63 546 q 15 553 26 546 q 0 596 0 561 l 0 685 q 24 724 0 714 q 47 725 26 725 l 99 725 l 471 725 l 618 725 l 647 725 q 664 721 656 725 q 674 713 669 719 q 678 706 676 710 q 681 700 679 701 m 375 650 q 366 671 376 661 q 344 682 356 681 q 312 664 322 685 q 317 626 301 643 q 354 619 332 610 q 375 650 376 628 z "},"u":{"ha":833,"x_min":0,"x_max":675,"o":"m 674 693 q 675 672 675 690 l 675 631 l 675 346 l 675 281 q 657 182 675 242 q 536 36 625 88 q 344 0 471 0 q 247 7 300 0 q 158 26 196 14 q 82 79 124 40 q 28 156 56 106 q 13 201 22 165 q 3 251 8 214 q 0 318 0 274 l 0 593 l 0 681 q 13 708 0 697 q 44 718 24 718 l 174 718 q 206 707 194 718 q 217 689 213 700 q 218 674 217 678 q 225 669 222 669 l 236 669 q 269 683 253 669 q 308 707 303 706 q 350 710 336 713 q 418 664 397 703 q 415 571 446 613 q 338 526 386 526 q 279 549 304 526 q 269 556 274 551 q 258 564 263 563 q 222 564 231 568 q 218 547 218 563 l 218 494 l 218 347 q 221 269 218 286 q 271 199 231 219 q 361 185 314 176 q 436 226 408 192 q 458 306 458 256 l 458 543 l 458 664 l 458 683 q 486 715 461 708 q 524 718 493 718 l 599 718 l 639 718 q 661 710 650 717 q 674 693 672 703 m 304 619 q 313 599 303 608 q 333 588 322 589 q 365 603 354 585 q 363 639 376 622 q 326 650 347 657 q 304 619 301 640 z "},"v":{"ha":833,"x_min":-1,"x_max":731,"o":"m 729 711 q 726 694 731 708 q 697 610 717 667 q 665 524 676 553 l 565 244 q 528 138 553 207 q 493 43 503 69 q 467 7 483 15 q 436 0 454 0 l 372 0 l 303 0 q 271 1 275 0 q 238 26 247 8 l 233 36 q 168 224 213 99 q 119 364 151 271 q 69 504 86 457 l 4 690 q 2 695 3 692 q 1 700 1 699 q 3 717 -1 710 q 19 724 8 724 l 133 724 l 194 724 q 222 719 214 724 q 247 685 238 711 q 250 674 247 683 q 256 658 253 664 q 261 651 256 656 q 267 656 263 653 q 272 660 271 658 q 282 674 278 665 q 332 717 313 711 q 381 721 356 725 q 438 686 415 717 q 457 619 461 656 q 425 563 453 588 q 369 539 399 539 q 329 546 349 538 l 313 554 q 303 555 310 556 q 293 553 296 554 q 290 549 290 551 q 294 538 290 546 l 307 497 q 322 450 311 485 q 339 396 332 415 q 344 380 340 392 q 350 361 347 368 q 357 343 354 346 q 376 364 368 338 l 378 367 q 485 694 421 504 q 521 724 493 719 q 540 724 529 724 q 563 724 550 724 q 583 724 576 724 l 686 724 q 729 711 731 724 m 332 632 q 340 610 332 621 q 357 599 347 600 q 392 613 378 594 q 392 649 406 631 q 357 663 378 667 q 342 651 349 661 q 335 642 338 647 q 333 637 333 640 q 332 632 333 633 z "},"w":{"ha":833,"x_min":-6,"x_max":928,"o":"m 925 722 q 919 681 928 715 q 888 576 910 650 q 854 461 867 501 l 771 174 q 726 24 740 74 q 717 9 724 14 q 701 2 711 4 q 684 0 692 0 q 664 1 676 0 q 647 1 651 1 q 610 8 619 1 q 597 29 604 13 l 493 257 q 472 279 486 274 q 436 264 450 289 q 422 235 431 254 q 411 211 414 217 q 403 194 408 206 q 396 178 399 183 q 374 129 389 161 q 351 82 358 97 q 324 22 339 53 q 300 3 315 7 q 246 1 294 1 q 206 8 214 1 q 188 47 197 14 l 125 271 q 43 560 78 436 q 1 703 6 689 q 18 738 -6 728 q 56 740 24 740 l 129 740 l 169 740 q 196 689 183 738 l 242 551 q 251 519 244 540 q 263 488 258 499 q 268 471 264 482 q 274 454 272 460 q 301 439 285 433 q 319 463 311 443 l 369 588 q 381 616 374 597 q 393 644 389 635 q 404 671 400 665 q 440 697 417 689 q 485 697 464 704 q 532 644 515 686 l 578 521 q 595 474 581 513 q 618 414 610 435 q 642 399 625 397 q 660 418 654 400 l 689 521 q 709 592 696 544 q 729 664 722 640 q 743 713 736 692 q 749 733 749 732 q 774 740 754 740 l 842 740 l 896 740 q 911 738 907 740 q 919 731 918 733 q 922 726 921 729 q 925 722 924 724 m 494 617 q 469 647 499 639 q 437 633 449 653 q 439 597 425 614 q 474 587 453 579 q 494 617 494 594 z "},"x":{"ha":833,"x_min":1,"x_max":769,"o":"m 765 19 q 761 6 769 11 q 743 0 753 1 l 688 0 l 608 0 q 524 15 542 0 q 494 54 515 22 q 465 99 475 85 q 440 138 460 107 q 411 185 421 168 q 372 200 394 210 q 361 192 367 197 q 353 182 356 186 q 345 169 350 178 q 339 158 340 161 l 285 71 q 272 50 281 65 q 257 28 263 35 q 215 3 243 8 q 179 0 204 0 l 104 0 l 38 0 q 7 8 13 0 q 13 35 1 18 l 36 68 q 201 310 90 149 l 226 344 l 238 367 q 217 429 242 394 l 56 665 q 49 674 56 667 q 38 688 42 682 q 31 701 35 693 q 27 714 26 708 q 33 724 28 719 q 68 728 40 728 l 142 728 l 207 728 q 240 719 224 728 q 269 689 260 708 q 288 660 276 679 q 301 636 299 642 l 303 640 q 306 646 304 644 q 321 669 310 658 q 410 693 356 707 q 449 669 431 688 q 471 629 457 661 l 482 649 q 497 674 486 654 q 514 704 507 694 q 558 728 531 725 l 603 728 l 686 728 q 729 726 722 728 q 739 697 753 721 l 681 610 l 588 471 q 540 400 550 418 q 539 353 528 378 q 553 332 542 346 q 629 221 585 283 l 721 88 q 751 42 732 72 q 765 19 765 28 m 418 613 q 390 643 419 636 q 357 626 368 646 q 361 589 347 606 q 397 581 379 571 q 418 613 418 592 z "},"y":{"ha":833,"x_min":3,"x_max":772,"o":"m 765 717 q 756 688 772 710 l 558 392 q 507 310 515 332 q 499 190 499 285 q 499 140 499 172 q 499 82 499 108 q 499 33 499 56 q 489 10 499 19 q 464 0 479 0 l 392 0 l 310 0 q 274 31 278 0 l 274 81 l 274 181 q 274 211 274 190 q 275 244 275 232 q 273 274 275 257 q 267 306 271 292 q 218 388 263 321 q 18 685 151 488 q 6 714 3 707 q 49 725 10 725 l 128 725 q 207 725 207 726 q 257 696 240 725 q 267 681 258 693 q 279 661 275 668 q 290 653 286 650 q 296 665 292 653 q 313 693 300 676 q 356 721 329 714 q 419 717 389 731 q 464 674 450 704 q 472 653 472 663 q 481 640 475 640 q 496 661 482 640 q 517 696 503 674 q 531 714 522 707 q 554 723 540 721 q 577 726 568 725 q 603 726 586 726 q 626 725 621 725 l 722 725 q 765 717 761 725 m 350 632 q 358 612 349 621 q 379 601 368 603 q 410 619 401 600 q 407 654 419 638 q 371 664 394 672 q 350 632 350 656 m 424 543 q 410 546 424 550 q 390 540 404 543 q 356 546 360 540 l 354 546 q 361 524 351 543 q 382 499 372 501 q 406 513 394 494 q 424 543 410 522 z "},"z":{"ha":833,"x_min":0,"x_max":689,"o":"m 688 147 q 689 110 689 144 l 689 47 q 683 17 689 26 q 654 0 675 0 l 611 0 l 374 0 l 115 0 l 43 0 q 1 22 10 0 q 0 58 0 25 l 0 122 q 22 190 0 167 q 41 209 28 197 q 57 224 54 221 q 140 301 113 276 q 331 482 264 419 q 378 526 364 513 q 385 547 390 539 q 364 553 381 553 l 131 553 l 85 553 l 65 553 q 52 560 57 556 q 44 569 47 565 q 40 582 42 574 q 39 594 39 590 q 39 609 39 599 q 39 622 39 619 l 39 685 q 46 714 39 703 q 74 725 57 725 l 90 725 l 304 725 l 564 725 l 633 725 q 649 724 643 725 q 672 696 668 718 q 674 653 674 692 l 674 597 q 649 538 671 560 q 519 415 626 517 l 332 238 q 290 199 297 206 q 289 175 275 183 q 308 174 290 174 l 543 174 l 643 174 l 661 174 q 688 147 689 165 m 376 639 q 372 663 381 644 q 354 675 367 669 q 319 663 333 682 q 315 625 304 644 q 351 611 328 607 q 369 621 361 613 q 376 639 378 629 z "},"":{"ha":833,"x_min":0,"x_max":0,"o":""},"":{"ha":833,"x_min":0,"x_max":419,"o":"m 229 1 q 199 0 219 0 q 81 43 135 1 q 11 142 28 82 q 0 206 1 176 q 11 268 0 238 q 82 368 32 328 q 203 410 131 406 q 260 403 225 411 q 319 376 296 390 q 397 278 374 338 q 404 154 419 219 q 340 51 392 96 q 290 18 317 28 q 229 1 268 10 m 207 269 q 227 277 218 268 q 239 297 236 286 q 222 331 242 319 q 183 328 201 343 q 175 289 167 314 q 207 269 183 269 z "},"":{"ha":833,"x_min":0,"x_max":0,"o":""},"":{"ha":833,"x_min":0,"x_max":603,"o":"m 601 157 q 603 143 603 154 l 603 111 l 603 35 q 594 3 603 8 q 576 0 590 0 l 475 0 l 143 0 l 33 0 q 0 18 3 0 l 0 89 l 0 232 l 0 567 l 0 675 q 0 682 0 676 q 0 689 0 688 q 1 695 0 690 q 2 702 1 700 q 5 708 3 704 q 10 713 7 711 q 18 714 14 714 l 50 714 q 67 719 64 714 q 67 733 69 724 q 61 754 64 740 q 73 806 56 781 q 118 835 90 831 q 169 825 146 839 q 200 785 193 811 q 199 738 206 756 q 194 732 197 736 q 190 724 192 728 q 189 718 188 721 q 206 714 192 710 q 211 722 207 714 q 214 729 211 725 q 218 735 217 733 q 236 754 225 746 q 285 774 258 774 q 336 758 310 775 q 357 740 350 749 q 364 728 363 732 l 368 715 q 379 713 372 713 q 388 717 386 713 q 379 736 389 721 q 378 788 369 763 q 413 828 389 814 q 465 833 435 840 q 506 803 490 828 q 517 754 521 779 q 508 731 515 743 q 508 717 506 719 q 522 714 510 714 l 561 714 q 592 699 589 714 l 592 646 l 592 575 q 575 554 592 556 l 543 554 l 474 554 l 307 554 l 251 554 q 226 549 232 554 q 222 535 222 544 l 222 501 l 222 467 q 228 451 222 458 q 251 449 232 449 l 311 449 l 478 449 l 536 449 q 561 442 554 449 q 565 401 565 438 l 565 325 q 563 311 565 315 q 549 303 558 303 l 519 303 l 363 303 l 285 303 l 242 303 q 222 285 224 300 l 222 225 l 222 190 q 225 176 222 181 q 247 168 231 168 l 375 168 l 538 168 l 582 168 q 601 157 600 168 m 254 696 q 261 673 253 685 q 281 660 269 661 q 315 676 303 657 q 315 713 328 694 q 281 725 301 732 q 263 714 272 724 l 261 711 q 257 704 258 707 q 256 700 257 703 q 254 696 256 697 z "},"":{"ha":833,"x_min":-4,"x_max":774,"o":"m 769 24 q 769 11 774 18 q 757 1 764 4 q 739 0 751 0 l 582 0 q 562 4 571 0 q 547 14 553 8 q 537 31 542 19 q 530 47 532 42 q 524 67 528 53 q 518 86 519 82 q 479 119 510 117 l 426 119 l 331 119 l 283 119 q 251 99 261 115 q 235 58 242 82 q 222 22 229 33 q 182 0 208 0 l 104 0 l 26 0 q 8 3 14 0 q 1 29 -4 11 q 3 38 1 32 q 7 46 6 43 q 25 90 10 51 l 150 426 q 202 565 168 475 q 249 688 236 654 q 264 711 254 703 q 306 725 279 725 l 468 725 q 522 685 508 725 l 560 586 l 693 232 l 747 86 q 756 65 750 79 q 764 43 761 50 q 767 34 764 42 q 769 24 769 26 m 353 639 q 363 621 353 629 q 383 611 372 613 q 403 617 393 610 q 415 632 413 624 q 406 668 424 653 q 369 672 389 685 q 353 639 353 664 m 454 297 q 450 315 454 307 q 440 349 444 338 q 424 402 435 368 q 410 450 414 436 q 405 467 408 456 q 399 488 401 479 q 393 504 396 497 q 382 518 383 518 q 372 504 376 518 q 328 356 356 456 q 313 308 317 325 q 317 285 310 294 q 338 276 324 276 l 418 276 l 438 276 q 449 285 446 279 q 452 292 451 288 q 454 297 453 296 z "},"":{"ha":833,"x_min":0,"x_max":668,"o":"m 664 239 q 661 164 668 197 q 633 94 654 125 q 578 44 615 67 q 422 1 513 6 q 285 0 376 0 l 64 0 q 19 4 26 0 q 0 42 0 15 l 0 186 l 0 425 l 0 632 l 0 683 q 19 721 0 710 q 56 725 26 725 l 132 725 l 367 725 l 554 725 q 590 721 583 725 q 610 657 610 708 l 610 604 q 601 578 610 590 q 557 567 592 567 l 340 567 l 263 567 q 225 540 229 567 q 224 499 224 533 q 226 464 224 471 q 234 454 229 458 q 243 448 239 450 q 255 445 247 446 q 266 444 263 444 q 279 444 269 444 q 290 444 289 444 q 453 438 399 444 q 600 376 549 425 q 664 239 657 321 m 276 646 q 285 625 275 635 q 306 614 294 615 q 339 632 329 614 q 333 669 351 654 q 297 677 319 686 q 276 646 275 668 m 443 232 q 407 286 444 269 q 340 299 386 296 l 269 299 q 226 281 236 299 q 224 258 224 274 l 224 215 q 238 164 224 174 q 253 157 244 158 q 278 156 261 156 q 297 157 296 157 l 360 157 q 418 176 397 163 q 443 232 438 192 z "},"":{"ha":833,"x_min":0,"x_max":663,"o":"m 658 219 q 654 161 663 196 q 594 60 640 97 q 544 25 567 35 q 488 11 535 21 q 243 0 424 0 l 63 0 l 29 0 q 0 35 3 3 l 0 118 l 0 297 l 0 651 l 0 688 q 14 717 3 707 q 47 725 22 725 l 111 725 l 307 725 l 415 725 q 536 697 500 719 q 617 599 604 656 q 611 475 636 526 q 576 426 599 449 l 565 415 l 553 408 q 541 401 551 407 q 528 392 531 396 q 539 376 519 381 q 567 365 551 372 q 615 329 601 347 q 658 219 658 279 m 271 651 q 276 629 265 644 q 296 617 285 618 q 331 631 318 611 q 331 668 344 650 q 296 681 317 688 q 271 651 269 672 m 214 474 q 229 447 214 457 q 254 442 236 442 l 326 442 q 378 454 354 442 q 404 497 399 465 q 396 547 408 526 q 354 574 382 569 q 306 576 324 576 l 263 576 q 240 575 247 576 q 214 539 217 568 l 214 474 m 433 238 q 400 289 438 271 q 336 303 375 303 l 258 303 q 217 281 224 303 q 214 257 214 274 l 214 208 q 233 163 214 174 q 257 160 242 160 l 304 160 q 363 161 353 160 q 417 183 403 167 q 433 238 433 203 z "},"":{"ha":833,"x_min":0,"x_max":568,"o":"m 567 699 q 568 681 568 693 l 568 643 l 568 565 q 551 525 568 538 q 530 513 543 517 q 509 508 517 508 q 481 508 501 507 q 457 508 460 508 l 285 508 l 249 508 q 228 499 236 508 q 219 475 219 489 q 218 413 217 475 l 219 350 l 219 201 l 219 111 l 219 35 q 204 6 219 18 q 171 1 197 1 l 85 1 q 66 1 82 1 q 42 1 50 0 q 23 4 35 1 q 6 15 11 7 q 0 35 0 22 l 0 257 l 0 607 l 0 689 q 19 721 0 713 q 46 724 28 724 l 357 724 l 504 724 l 533 724 q 556 717 544 724 q 567 699 567 710 m 242 651 q 234 672 243 663 q 213 682 225 681 q 181 665 192 685 q 185 628 171 646 q 221 619 199 613 q 242 651 243 631 z "},"":{"ha":833,"x_min":0,"x_max":824,"o":"m 821 263 l 821 242 l 821 197 l 821 76 q 822 58 821 74 q 822 33 824 43 q 817 15 821 22 q 803 5 813 8 q 788 1 794 1 q 768 1 782 0 q 751 1 754 1 l 692 1 q 664 3 667 1 q 651 11 656 6 q 644 26 646 17 q 641 41 642 35 q 641 59 640 47 q 642 74 642 71 q 636 107 642 99 q 608 122 629 119 l 515 122 l 449 122 l 274 122 l 218 122 q 192 113 199 119 q 180 91 182 104 q 180 60 178 78 q 181 35 182 42 q 164 6 178 13 q 136 1 157 1 l 35 1 q 10 11 19 1 q 0 36 0 21 l 0 126 l 0 238 l 0 258 q 24 286 4 279 q 42 288 26 288 l 58 292 q 86 319 81 301 q 107 397 99 356 q 124 478 122 474 q 126 504 125 490 q 129 535 128 518 q 132 563 131 553 q 138 718 138 614 l 138 779 l 138 811 q 175 844 140 844 l 331 844 l 578 844 l 672 844 q 684 844 676 844 q 698 844 692 844 q 710 844 704 844 q 743 808 743 842 l 743 757 l 743 525 l 743 333 q 760 293 743 303 q 776 288 765 290 l 786 289 q 796 288 796 289 q 821 263 821 281 m 379 761 q 385 738 374 753 q 403 726 392 729 q 438 739 424 719 q 439 776 451 758 q 406 790 425 794 q 386 781 394 789 q 379 761 378 772 m 521 633 q 513 656 521 644 q 474 667 501 667 l 396 667 q 354 665 368 667 q 343 664 346 665 q 342 657 342 664 q 340 632 340 649 q 332 524 340 596 q 314 406 325 458 l 304 350 q 300 303 294 314 q 332 288 306 288 l 404 288 l 476 288 q 511 299 503 288 q 521 328 521 308 l 521 376 l 521 633 z "},"":{"ha":833,"x_min":0,"x_max":604,"o":"m 603 14 l 603 13 q 601 10 601 11 l 601 8 l 600 8 l 596 4 l 596 3 l 594 1 l 592 1 l 590 0 l 15 0 l 13 1 l 11 1 l 8 3 l 7 3 l 0 10 l 0 707 l 7 714 l 10 715 l 11 717 l 18 717 l 192 717 l 482 717 l 567 717 l 581 717 q 594 697 594 715 q 594 659 594 683 q 594 615 594 635 q 594 578 594 594 q 594 574 594 576 q 593 571 593 572 q 582 556 590 563 l 581 554 l 579 554 l 578 553 l 575 551 l 571 551 l 558 551 l 293 551 l 247 551 l 232 551 q 228 550 229 551 q 221 519 218 546 q 222 467 221 475 q 242 450 226 453 l 271 450 l 407 450 l 532 450 l 553 450 q 567 429 567 449 l 567 365 q 567 351 567 360 q 568 334 568 342 q 567 321 568 326 q 563 311 567 315 l 563 310 l 560 307 l 557 306 l 554 306 l 551 304 l 547 304 l 518 304 l 257 304 l 236 304 q 231 301 233 304 q 222 282 222 294 l 222 217 l 222 190 q 225 181 222 189 q 235 171 229 172 q 243 169 238 169 l 278 169 l 414 169 l 550 169 q 561 170 553 169 q 577 171 569 171 q 590 169 585 171 q 592 169 592 169 l 594 168 q 603 160 600 167 q 604 126 604 158 l 604 56 q 603 14 604 18 m 264 657 l 263 654 l 261 653 q 258 639 258 649 q 265 619 257 628 q 285 608 274 611 l 299 608 l 301 611 l 307 614 l 313 619 l 314 621 l 314 624 l 315 628 l 317 631 l 318 635 l 318 642 l 317 646 l 315 649 l 314 653 l 314 654 l 313 657 l 307 663 l 304 664 l 301 667 l 297 668 l 294 668 q 265 658 275 671 l 264 657 z "},"":{"ha":833,"x_min":-26,"x_max":797,"o":"m 792 53 q 779 8 797 21 q 728 1 768 1 l 647 1 q 610 28 621 4 q 592 85 608 31 q 581 125 589 99 q 569 164 574 151 q 560 191 567 174 q 551 211 553 208 q 525 257 542 240 q 511 267 519 264 q 493 250 500 269 q 492 206 492 246 l 492 42 q 475 4 492 14 q 424 1 469 1 l 332 1 q 288 10 294 1 q 279 51 279 19 l 279 135 l 279 219 q 272 260 279 250 q 261 267 267 267 q 249 262 256 268 q 238 249 243 256 q 228 231 233 242 q 220 215 222 221 q 215 204 218 210 q 210 190 214 199 q 203 173 206 181 q 199 158 200 165 q 175 74 194 142 q 157 22 158 25 q 117 1 143 1 l 31 1 q -14 14 -3 1 q -19 67 -26 28 q -6 128 -11 108 q 9 162 -1 140 q 22 190 19 183 q 46 244 29 208 q 56 271 49 251 q 69 300 64 290 q 99 349 96 346 q 105 356 101 351 q 112 363 108 360 q 118 368 115 365 q 129 376 121 369 q 140 385 138 382 q 141 399 143 394 q 130 413 139 404 q 119 424 121 421 q 90 465 97 449 q 80 492 86 474 q 69 519 74 511 q 36 567 56 549 q 13 576 26 576 q -8 583 -6 579 q -11 600 -11 588 l -11 636 l -11 703 q 3 725 -8 718 q 32 729 8 729 q 93 724 82 726 q 181 647 147 713 q 196 612 189 631 q 210 569 203 593 q 222 532 218 544 q 244 482 233 497 q 275 479 263 457 q 279 522 279 489 l 279 613 l 279 685 q 296 722 279 715 q 349 725 301 725 l 440 725 q 483 715 475 725 q 492 674 492 706 l 492 508 q 501 471 492 475 q 532 493 514 465 q 547 527 540 508 q 560 572 554 546 q 571 608 567 597 q 638 706 594 675 q 689 726 664 725 l 747 731 q 781 697 781 731 l 781 622 q 774 579 781 585 q 767 577 771 578 q 758 576 763 576 q 750 575 753 575 q 729 563 738 572 q 721 553 728 561 q 711 540 714 546 q 697 513 706 532 q 688 487 693 504 q 678 461 682 469 q 646 418 664 436 q 638 410 644 415 q 629 400 632 404 q 638 379 625 390 q 676 340 665 357 q 706 289 689 325 q 753 179 715 268 q 792 53 792 93 m 418 651 q 410 672 419 663 q 390 683 401 681 q 357 668 371 688 q 360 629 344 650 q 397 619 374 610 q 418 651 422 629 z "},"":{"ha":833,"x_min":1,"x_max":626,"o":"m 622 272 q 619 192 626 228 q 526 56 599 103 q 364 1 454 8 q 190 15 254 -4 q 50 110 100 39 q 10 189 29 139 q 11 225 1 215 q 36 235 17 232 l 151 243 q 179 244 171 246 q 211 226 196 244 q 222 212 214 224 q 236 196 229 200 q 269 176 243 189 q 349 178 307 163 q 400 235 392 192 q 401 271 403 263 q 381 300 400 283 q 311 331 350 326 q 274 332 299 332 q 239 340 247 332 q 229 374 229 351 l 229 418 q 253 443 235 442 q 274 443 260 444 q 294 443 288 442 q 358 483 343 451 q 361 560 381 528 q 289 586 342 589 q 221 553 239 583 q 165 522 199 518 q 51 536 124 528 q 26 544 33 539 q 19 576 11 557 q 64 651 38 621 q 128 706 93 685 q 210 738 154 721 q 297 747 243 747 q 379 742 333 749 q 533 676 479 726 q 579 604 565 647 q 585 524 590 575 q 551 449 578 479 q 522 421 546 440 q 513 407 513 414 q 524 396 515 399 q 541 387 529 393 q 560 376 553 381 q 592 347 588 353 q 622 272 615 318 m 363 660 q 354 681 364 671 q 333 692 344 690 q 300 673 311 693 q 304 638 289 653 q 343 629 321 618 q 363 660 365 638 z "},"":{"ha":833,"x_min":0,"x_max":692,"o":"m 690 701 q 692 664 692 699 l 692 450 l 692 174 l 692 33 q 674 4 692 15 q 643 0 664 0 l 522 0 q 482 35 482 0 l 482 119 l 482 343 q 480 357 482 351 q 472 361 478 363 q 456 339 465 358 l 389 231 q 289 65 356 176 q 244 10 261 19 q 169 0 226 0 l 44 0 q 18 6 26 0 q 1 33 1 14 q 0 104 0 33 l 1 175 l 1 450 l 1 664 q 4 703 1 697 q 14 716 8 711 q 28 722 19 721 q 43 724 38 724 q 60 724 49 725 q 76 724 72 724 l 179 724 q 210 701 201 721 q 211 679 211 697 l 211 438 l 211 371 q 219 360 215 358 q 231 369 225 360 q 249 400 233 374 l 314 507 q 321 525 322 522 q 316 533 321 529 q 304 539 311 536 q 294 543 297 542 q 256 618 256 569 q 294 693 257 667 q 357 710 322 714 q 397 696 379 707 q 403 692 400 694 q 411 685 407 689 q 418 679 415 681 q 438 706 429 699 q 465 721 457 718 q 507 724 475 724 l 593 724 l 657 724 q 690 701 679 724 m 381 622 q 371 642 379 633 q 351 650 363 650 q 319 632 328 653 q 325 597 310 611 q 361 590 342 581 q 381 622 381 599 z "},"":{"ha":833,"x_min":0,"x_max":689,"o":"m 511 721 l 663 721 q 681 713 672 721 q 689 694 689 706 l 689 26 q 681 8 689 17 q 663 0 672 0 l 507 0 q 488 8 496 0 q 479 26 479 15 l 479 382 q 474 395 479 393 q 464 388 469 397 l 276 43 l 265 22 q 224 0 250 0 l 26 0 q 8 8 15 0 q 0 26 0 15 l 0 694 q 8 713 0 706 q 26 721 15 721 l 182 721 q 201 713 193 721 q 210 694 210 706 l 210 336 q 215 323 210 325 q 225 331 219 321 l 350 547 l 413 653 q 412 660 415 657 q 404 663 408 664 q 350 656 376 656 q 228 696 281 656 q 181 763 181 735 q 193 791 181 778 q 224 804 206 804 q 275 772 250 804 l 281 767 q 288 768 283 764 q 324 799 300 790 q 371 800 347 808 q 408 767 397 792 q 413 763 410 764 q 417 765 415 763 q 424 772 421 768 q 476 804 449 804 q 508 786 496 804 q 513 749 519 768 q 506 731 511 742 q 511 721 499 721 m 372 732 q 367 750 374 742 q 351 760 361 758 q 322 738 328 763 q 344 710 319 713 q 372 732 369 707 z "},"":{"ha":833,"x_min":0,"x_max":685,"o":"m 679 25 q 679 10 685 17 q 664 1 674 3 l 643 1 l 528 1 q 458 4 467 1 q 426 24 440 8 q 410 60 424 26 q 375 140 388 113 l 346 210 q 322 265 332 239 q 310 289 311 286 q 278 290 293 308 q 246 256 265 278 q 228 226 235 244 q 224 194 224 217 l 224 122 l 224 63 q 224 53 224 60 q 224 42 224 47 q 224 32 224 36 q 201 3 221 10 q 176 1 197 1 l 61 1 q 53 1 58 1 q 44 1 47 1 q 35 1 40 1 q 28 2 31 1 q 21 4 25 3 q 14 8 17 6 q 8 13 11 10 q 4 21 6 17 q 0 56 0 29 l 0 235 l 0 485 l 0 667 q 1 699 0 693 q 26 724 6 719 q 35 724 31 724 q 44 724 39 724 q 51 724 49 724 l 167 724 q 174 724 168 724 q 182 724 179 724 q 190 724 185 724 q 197 723 194 724 q 203 722 199 722 q 209 719 207 721 q 214 715 211 717 q 219 710 217 713 q 222 703 221 707 q 225 696 225 697 q 233 694 228 694 q 242 701 236 696 q 249 707 247 706 q 285 721 263 717 q 354 700 324 728 q 365 685 364 686 q 369 678 367 683 q 375 669 372 672 q 390 665 381 665 q 403 669 399 665 q 414 686 408 674 q 425 703 419 699 q 458 721 442 715 q 485 724 468 724 l 535 724 l 631 724 q 656 711 650 724 q 647 683 658 706 q 624 651 640 671 q 604 625 608 631 q 532 524 567 571 q 513 495 528 518 q 488 461 497 472 q 481 407 467 439 q 504 363 490 386 l 613 154 q 660 64 614 151 q 674 38 671 42 l 675 32 q 679 25 678 26 m 328 639 q 321 660 329 650 q 301 671 313 669 q 269 655 281 674 q 271 618 257 636 q 308 609 285 601 q 328 639 331 617 m 310 547 q 286 558 311 553 q 250 568 261 561 q 226 572 229 581 q 225 543 225 569 q 224 515 225 533 q 224 488 224 497 q 225 458 224 464 q 247 456 236 446 q 267 485 257 467 l 297 526 q 310 547 310 543 z "},"":{"ha":833,"x_min":-1,"x_max":729,"o":"m 725 25 q 726 12 729 18 q 715 3 722 6 q 697 1 713 1 l 524 1 q 483 31 494 1 q 465 89 476 50 q 441 165 457 115 q 418 236 425 214 l 390 322 q 378 363 382 350 l 369 379 q 356 374 361 383 q 350 354 351 365 l 325 281 q 294 186 317 254 q 260 82 272 118 l 243 29 q 206 1 235 4 l 140 1 l 38 1 q 29 1 36 1 q 19 1 22 1 q 10 3 15 1 q 3 7 6 4 q 0 15 0 10 q 6 40 -1 21 q 28 106 13 63 q 53 169 44 149 l 194 565 q 216 626 201 586 q 239 686 231 667 q 254 711 243 701 q 307 721 267 721 l 411 721 q 468 718 463 721 q 492 690 486 707 q 506 651 500 665 l 635 283 q 725 25 664 197 m 396 626 q 389 649 401 636 q 371 661 383 657 q 335 647 349 667 q 335 610 321 628 q 369 597 351 592 q 396 626 396 603 z "},"":{"ha":833,"x_min":0,"x_max":771,"o":"m 769 697 q 771 683 771 693 l 771 653 l 771 392 l 771 106 l 771 38 q 764 15 768 22 q 732 1 753 1 l 611 1 q 581 24 589 1 q 578 49 578 32 l 578 317 l 578 342 q 575 351 578 347 q 567 353 572 354 q 554 340 563 353 q 546 315 549 333 l 525 253 q 504 187 518 231 q 483 121 490 143 q 474 94 476 100 q 435 68 463 74 l 383 68 q 333 69 350 68 q 296 97 310 71 q 286 124 293 103 l 244 256 q 222 321 233 285 l 214 350 q 200 354 208 358 q 192 342 192 350 l 192 314 l 192 174 l 192 47 q 189 22 192 31 q 157 1 181 1 l 35 1 q 0 39 0 1 l 0 243 l 0 549 l 0 657 q 1 703 0 699 q 10 718 4 713 q 25 725 15 724 q 41 727 35 726 q 60 727 47 728 q 75 726 72 726 l 211 726 q 242 718 231 726 q 256 701 251 713 q 258 695 257 699 q 261 688 260 692 q 264 681 263 683 q 268 667 265 678 q 274 648 271 656 q 283 639 278 640 q 297 647 293 635 q 302 657 299 650 q 308 668 306 664 q 389 711 340 713 q 467 660 442 707 l 467 658 q 488 639 478 632 q 490 644 489 640 q 493 652 492 647 q 496 658 494 657 q 501 672 497 661 q 506 690 504 683 q 533 722 513 714 q 565 728 544 728 q 706 726 613 726 l 740 726 q 761 717 751 725 q 769 697 771 708 m 353 614 q 363 594 353 603 q 383 585 374 585 q 415 606 406 585 q 407 642 424 628 q 369 646 389 658 q 353 614 353 638 m 461 549 q 449 551 457 556 q 436 542 442 547 q 369 526 403 521 q 336 540 360 529 l 321 551 q 317 557 319 553 q 314 558 315 558 l 311 558 q 308 547 307 556 q 309 542 308 546 q 311 536 310 538 l 332 475 q 374 349 346 432 q 383 324 378 326 q 388 324 386 322 q 392 330 390 326 q 394 336 393 333 q 396 342 394 339 l 433 463 q 442 490 436 469 q 453 522 449 511 q 461 549 461 544 z "},"":{"ha":833,"x_min":0,"x_max":694,"o":"m 693 700 q 694 683 694 697 l 694 654 l 694 382 l 694 93 l 694 36 q 678 6 694 14 q 642 0 668 0 l 507 0 q 475 17 483 3 q 469 49 469 25 l 469 192 l 469 251 q 464 281 469 272 q 431 294 453 294 l 371 294 l 257 294 q 240 290 247 294 q 230 278 233 285 q 225 261 226 272 q 223 243 224 250 q 223 224 222 236 q 224 208 224 211 l 224 103 l 224 49 q 210 7 224 17 q 175 0 200 0 l 101 0 l 39 0 q 8 15 17 3 q 0 64 0 25 l 0 326 l 0 622 l 0 690 q 44 728 0 728 l 182 728 q 214 718 203 728 q 224 696 224 708 q 224 683 224 693 q 225 674 224 674 l 249 674 q 269 685 251 675 q 296 704 275 689 q 340 715 314 715 q 367 711 354 715 q 407 686 390 706 q 428 642 424 667 q 422 590 433 615 q 388 550 410 564 q 304 544 342 525 q 282 558 290 550 q 260 574 264 572 q 243 575 254 575 l 225 575 l 225 572 q 224 569 225 571 l 224 507 q 286 472 225 472 l 428 472 q 458 482 449 472 q 469 514 469 493 l 469 656 q 469 669 469 658 q 469 684 469 679 q 471 697 469 689 q 475 710 472 706 q 483 720 478 715 q 497 726 489 725 q 538 728 503 728 l 617 728 l 661 728 q 683 719 672 726 q 693 700 694 711 m 306 626 q 314 606 304 615 q 335 593 324 596 q 368 608 354 589 q 365 647 381 626 q 328 657 351 665 q 306 626 304 649 z "},"":{"ha":833,"x_min":-11,"x_max":750,"o":"m 749 428 q 750 371 750 408 q 693 144 750 232 q 513 17 625 43 q 397 0 446 0 q 281 8 328 0 q 224 21 254 13 q 169 44 206 28 q 81 118 124 64 q 24 218 46 161 q 1 335 7 264 q 42 572 -11 472 q 113 664 69 625 q 215 725 151 699 q 453 744 318 764 q 660 646 590 725 l 682 621 q 690 608 685 617 q 697 597 696 600 q 724 543 717 568 q 740 488 735 515 q 749 428 747 458 m 339 660 q 347 640 338 649 q 367 628 356 631 q 401 643 386 622 q 406 661 406 649 q 399 679 406 672 q 383 692 394 688 q 363 692 372 696 q 345 679 353 689 q 339 660 338 669 m 528 383 q 527 397 528 389 q 526 411 526 406 q 497 519 524 472 q 403 578 468 568 q 294 558 339 588 q 232 465 249 529 q 224 350 218 417 q 249 239 229 276 q 336 172 281 182 q 447 183 401 160 q 514 269 496 207 q 528 383 521 290 z "},"":{"ha":833,"x_min":1,"x_max":693,"o":"m 693 92 l 693 33 q 676 6 690 13 q 642 0 668 0 l 507 0 q 480 11 490 0 q 469 39 469 22 l 469 290 l 469 439 l 469 511 q 450 543 469 535 q 415 546 443 546 l 271 546 q 239 539 249 546 q 225 510 225 532 l 225 486 l 225 411 l 225 251 l 225 183 l 225 146 l 225 35 q 224 32 225 33 q 223 26 224 29 q 222 21 222 22 q 207 4 215 10 q 172 0 200 0 l 99 0 l 39 0 q 7 15 17 0 q 1 64 1 22 l 1 328 l 1 621 l 1 688 q 12 713 1 703 q 38 722 22 722 l 242 722 l 553 722 l 644 722 l 658 722 q 679 715 669 722 q 692 697 682 713 q 693 681 693 694 l 693 651 l 693 381 l 693 92 m 379 643 q 370 663 381 654 q 349 672 360 671 q 318 652 326 674 q 326 615 310 631 q 363 611 342 600 q 379 643 379 621 z "},"":{"ha":833,"x_min":1,"x_max":618,"o":"m 617 517 q 614 461 618 507 q 600 403 613 438 q 571 353 590 382 q 479 289 544 313 q 365 269 431 272 l 299 269 q 244 265 253 269 q 226 224 226 256 l 226 165 l 226 90 q 227 73 226 85 q 228 51 228 61 q 226 33 228 42 q 210 6 225 15 q 165 0 200 0 l 79 0 l 31 0 q 1 35 1 6 l 1 53 l 1 169 l 1 526 l 1 658 q 13 718 1 708 q 46 726 24 726 l 104 726 l 282 726 q 324 727 289 726 q 372 727 358 728 q 411 724 385 726 q 458 717 438 722 q 497 706 478 713 q 585 632 554 685 q 617 517 617 579 m 242 649 q 250 628 240 638 q 271 615 260 618 q 304 633 293 613 q 301 671 315 654 q 264 681 285 690 q 248 667 256 678 q 242 649 240 657 m 399 503 q 371 558 400 533 q 314 578 350 575 q 263 579 293 583 q 228 550 232 575 q 226 485 226 539 q 232 431 226 439 q 253 417 242 418 l 282 417 q 338 422 314 417 q 385 453 367 429 q 399 503 399 472 z "},"":{"ha":833,"x_min":-1,"x_max":700,"o":"m 697 236 q 692 200 700 232 q 676 165 686 183 q 569 44 635 85 q 492 14 533 24 q 408 1 464 7 l 325 1 q 242 15 288 3 q 161 47 190 28 q 97 100 124 69 q 47 169 69 131 q 17 246 33 192 q 1 332 7 274 q 1 418 -1 376 q 47 588 8 508 q 165 706 82 657 q 333 750 228 742 q 504 733 432 754 q 642 638 585 708 q 683 567 660 613 q 685 532 694 544 q 661 517 678 521 q 550 493 625 510 q 492 507 503 481 q 451 558 481 533 q 417 576 436 569 q 378 582 408 579 q 297 563 336 589 q 267 536 279 550 q 244 500 261 529 q 226 417 236 482 q 226 331 222 374 q 290 188 236 217 q 328 172 322 174 l 369 168 q 446 190 410 168 q 492 253 472 208 q 498 269 493 256 q 507 289 503 282 q 542 300 519 306 q 638 272 553 299 q 653 267 639 272 q 674 260 668 263 q 687 251 679 258 q 697 236 694 244 m 350 657 q 360 637 349 646 q 383 629 372 628 q 414 651 407 629 q 403 688 421 672 q 365 690 388 703 q 350 657 350 681 z "},"":{"ha":833,"x_min":0,"x_max":682,"o":"m 681 700 q 682 679 682 697 l 682 635 q 681 572 682 579 q 643 546 675 546 l 489 546 q 453 517 457 546 l 453 490 l 453 335 l 453 33 q 422 0 453 3 l 361 0 l 272 0 q 233 17 243 0 q 228 47 228 26 l 228 104 l 228 290 l 228 467 q 228 486 228 469 q 228 510 229 503 q 224 528 228 518 q 210 543 219 538 q 158 546 204 546 l 63 546 q 15 553 26 546 q 0 596 0 561 l 0 685 q 24 724 0 714 q 47 725 26 725 l 99 725 l 471 725 l 618 725 l 647 725 q 664 721 656 725 q 674 713 669 719 q 678 706 676 710 q 681 700 679 701 m 375 650 q 366 671 376 661 q 344 682 356 681 q 312 664 322 685 q 317 626 301 643 q 354 619 332 610 q 375 650 376 628 z "},"":{"ha":833,"x_min":-1,"x_max":650,"o":"m 646 724 q 643 699 650 717 q 603 586 632 668 q 558 460 574 504 l 463 194 q 457 178 461 192 q 451 160 453 165 q 444 144 449 156 q 438 127 440 132 q 431 111 436 122 q 423 94 426 100 q 414 79 419 89 q 403 63 408 69 q 392 50 399 57 q 379 36 386 43 q 276 1 346 4 l 172 1 q 121 4 154 1 q 106 6 117 6 q 85 8 94 6 q 71 14 76 10 q 53 50 53 25 l 53 122 q 72 157 53 149 q 119 156 81 160 q 135 154 126 154 q 155 155 144 154 q 171 156 165 156 q 222 168 200 156 q 239 244 261 193 q 218 286 232 260 q 200 321 204 313 l 51 611 q 29 655 44 625 q 6 700 14 685 q 1 724 -1 717 q 35 736 6 736 l 183 736 q 218 732 207 736 q 247 688 239 722 q 251 692 249 689 q 256 699 253 694 q 260 704 258 703 l 276 717 q 369 721 325 746 q 400 694 390 708 q 410 674 403 689 q 413 686 410 675 q 419 702 417 697 q 426 715 421 707 q 436 725 431 722 q 472 736 454 736 l 540 736 l 613 736 q 646 724 639 736 m 293 639 q 301 619 292 628 q 321 607 310 610 q 353 625 343 604 q 349 661 364 646 q 313 669 333 678 q 293 639 292 661 m 343 451 q 375 556 353 486 q 353 551 374 556 q 331 549 339 549 q 308 549 321 547 q 300 551 307 549 q 289 554 293 554 l 315 469 l 324 444 q 343 451 332 435 z "},"":{"ha":833,"x_min":-10,"x_max":789,"o":"m 785 436 q 789 374 789 406 q 776 257 789 307 q 711 150 757 192 q 601 94 675 115 q 542 81 579 88 q 499 54 508 75 q 497 40 497 50 q 496 28 496 31 q 482 7 490 13 q 461 0 471 0 l 435 0 l 347 0 q 306 8 315 0 q 294 29 297 15 q 293 43 293 33 q 292 57 293 53 q 244 83 285 75 q 125 118 182 94 q 40 197 71 143 q 4 314 8 250 q 44 554 -10 475 q 138 629 81 603 q 260 664 197 656 q 293 694 289 669 q 328 722 296 722 l 463 722 q 496 697 492 722 q 507 674 497 682 q 531 664 517 665 q 647 631 594 656 q 746 551 711 604 q 774 494 765 521 q 785 436 779 478 m 428 651 q 418 672 431 660 q 399 679 408 679 q 365 660 375 681 q 372 622 356 639 q 410 617 389 607 q 428 651 428 625 m 608 375 q 550 499 606 453 q 499 506 510 531 q 497 461 497 503 l 497 276 q 506 239 497 244 q 560 261 522 228 q 594 311 585 283 q 604 342 603 331 q 606 358 606 347 q 608 375 607 369 m 293 494 q 287 508 294 503 q 271 514 279 514 q 243 499 260 513 q 200 446 217 476 q 188 328 171 394 q 217 275 194 301 q 240 253 229 261 q 268 236 258 238 q 292 249 286 232 q 293 265 293 254 l 293 344 l 293 494 z "},"":{"ha":833,"x_min":1,"x_max":769,"o":"m 765 19 q 761 6 769 11 q 743 0 753 1 l 688 0 l 608 0 q 591 0 606 0 q 572 0 576 0 q 556 1 567 0 q 538 6 544 3 q 524 15 531 10 q 493 54 522 15 q 481 74 490 58 q 465 99 471 90 q 410 185 421 165 q 372 200 394 211 q 339 158 358 193 l 285 71 q 272 50 281 65 q 257 28 263 35 q 215 3 243 8 q 179 0 204 0 l 104 0 l 36 0 q 7 8 13 0 q 13 35 1 18 l 35 68 l 201 310 q 225 344 213 325 q 236 367 235 360 q 217 429 242 394 q 56 665 72 640 q 49 674 56 667 q 38 688 42 682 q 31 701 35 693 q 27 714 26 708 q 33 724 28 719 q 68 728 40 728 l 142 728 l 206 728 q 240 719 224 728 q 269 689 260 708 q 288 660 276 679 q 301 636 299 642 q 303 641 303 638 q 304 646 304 644 q 319 669 310 658 q 410 693 357 707 q 449 669 431 688 q 471 629 457 661 l 482 649 q 514 704 507 694 q 558 728 531 725 l 603 728 l 686 728 q 729 726 722 728 q 739 697 753 721 q 679 610 725 675 q 586 471 631 535 q 565 439 582 464 q 539 400 547 414 q 538 353 528 379 l 551 332 q 628 221 596 269 q 721 88 660 176 l 751 42 q 765 19 765 28 m 418 613 q 390 643 419 636 q 357 626 368 646 q 361 589 346 604 q 397 581 376 571 q 418 613 418 592 z "},"":{"ha":833,"x_min":-1,"x_max":743,"o":"m 742 261 q 743 226 743 258 l 743 153 l 743 71 l 743 35 q 736 15 742 22 q 718 4 731 7 q 697 1 706 1 q 673 1 689 0 q 653 1 657 1 q 633 1 649 1 q 609 1 617 0 q 590 4 601 1 q 572 14 578 7 q 564 33 565 21 q 563 51 563 42 q 563 71 563 60 q 564 88 564 82 q 555 110 564 100 q 533 122 546 121 l 463 122 l 314 122 l 40 122 q 10 133 22 122 q -1 160 -1 143 l -1 235 l -1 557 l -1 801 q 1 822 -1 815 q 36 846 10 846 l 101 846 l 167 846 q 201 825 192 843 q 203 800 203 822 l 203 686 l 203 372 l 203 339 q 224 311 204 324 q 263 300 239 300 q 283 300 272 300 q 307 300 293 300 q 328 300 321 300 l 406 300 q 443 306 435 300 q 453 316 450 310 q 458 331 457 322 q 460 344 460 339 q 460 361 461 350 q 460 376 460 372 l 460 679 l 460 704 l 443 704 l 433 704 q 411 693 428 703 q 369 667 376 669 q 324 664 342 658 q 254 725 267 676 q 281 824 238 786 q 376 839 321 857 q 399 825 389 832 q 422 810 413 811 q 440 808 425 808 l 458 808 q 460 815 460 808 q 494 846 464 843 l 547 846 l 622 846 q 657 833 646 846 q 665 804 665 824 l 665 696 l 665 385 l 665 354 q 668 314 665 319 q 683 294 672 301 q 707 289 693 289 q 728 282 721 289 q 742 261 743 271 m 374 754 q 365 775 375 765 q 344 786 356 785 q 313 768 322 789 q 318 732 303 747 q 351 724 333 717 q 374 754 376 733 z "},"":{"ha":833,"x_min":0,"x_max":656,"o":"m 656 296 l 656 85 q 656 72 656 82 q 656 58 656 63 q 655 44 656 54 q 653 30 654 35 q 649 18 651 25 q 642 8 646 11 q 631 3 638 6 q 617 0 625 0 l 504 0 l 468 0 q 432 39 432 0 l 432 178 l 432 194 l 432 211 q 428 229 432 224 q 407 235 424 235 q 383 233 400 235 q 358 229 367 231 l 258 229 q 242 230 251 229 q 222 232 233 231 q 206 233 211 233 q 157 243 176 236 q 71 296 114 257 q 0 475 0 358 l 0 593 l 0 664 q 1 694 0 690 q 10 712 4 706 q 26 720 15 718 q 43 723 36 722 q 64 723 50 724 q 82 722 78 722 l 157 722 q 192 717 183 722 q 207 683 207 707 l 207 628 l 207 513 q 215 467 207 497 q 240 429 226 440 q 332 410 275 406 l 358 414 q 382 422 381 421 q 419 450 410 435 q 432 549 432 472 q 411 542 429 546 q 390 539 397 539 q 360 544 371 539 q 304 603 317 563 q 315 685 290 651 q 385 722 343 721 q 422 718 397 724 q 439 708 439 713 q 454 719 447 717 q 469 722 460 722 l 585 722 q 599 723 588 722 q 615 723 610 724 q 630 721 621 722 q 644 716 639 719 q 654 706 650 713 l 656 703 l 656 688 l 656 657 l 656 560 l 656 296 m 367 610 q 403 601 382 593 q 424 632 425 610 q 415 653 425 642 q 396 663 408 660 q 363 645 375 665 q 367 610 351 625 z "},"":{"ha":833,"x_min":0,"x_max":776,"o":"m 775 75 q 776 61 775 72 q 776 43 776 50 q 774 27 776 36 q 768 14 772 18 q 710 1 757 1 l 408 1 l 88 1 l 31 1 q 0 57 0 7 l 0 351 l 0 660 l 0 686 q 17 718 1 706 q 64 724 24 724 l 146 724 q 185 704 176 724 q 189 676 189 694 l 189 551 l 189 232 q 189 225 189 229 q 189 217 189 221 q 189 210 189 213 q 225 179 193 179 q 276 193 264 176 q 285 222 285 203 l 285 526 l 285 665 q 315 724 285 722 l 450 724 q 467 721 460 724 q 485 704 478 718 q 489 678 489 697 l 489 369 l 489 233 q 490 210 489 218 q 525 179 494 182 q 579 190 567 176 q 588 221 588 200 l 588 338 l 588 663 l 588 688 q 615 724 590 719 q 634 725 624 725 q 656 724 644 725 q 675 724 668 724 l 740 724 q 763 715 753 725 q 775 693 774 706 l 775 675 l 775 394 l 775 75 m 396 604 q 422 633 413 608 q 397 669 422 665 q 361 657 375 675 q 360 619 347 639 q 396 604 375 600 z "},"":{"ha":833,"x_min":-1,"x_max":853,"o":"m 853 254 l 853 207 l 853 42 q 832 3 853 14 q 811 1 828 1 l 769 1 q 749 1 763 1 q 725 0 736 0 q 704 1 714 0 q 674 42 674 6 q 674 63 674 47 q 674 90 675 79 q 667 108 672 101 q 615 122 656 122 l 349 122 l 42 122 q 11 132 21 122 q 0 163 0 146 l 0 265 l 0 644 l 0 783 q 0 789 0 785 q 25 843 0 835 q 46 844 29 844 l 89 844 l 156 844 q 179 832 171 843 q 188 811 188 821 q 189 783 189 801 q 189 781 189 782 q 189 778 189 779 l 189 424 l 189 333 q 199 310 189 319 q 225 300 210 300 q 279 317 269 300 q 285 347 285 326 l 285 403 l 285 585 l 285 761 l 285 806 q 299 838 285 825 q 349 844 307 844 l 439 844 q 482 831 474 844 q 489 800 489 821 l 489 468 l 489 340 q 501 310 489 325 q 526 300 511 300 l 557 300 q 588 336 588 304 q 588 346 588 340 q 588 358 588 351 q 588 367 588 364 l 588 532 l 588 721 l 588 811 q 599 835 589 825 q 624 844 610 844 l 700 844 q 757 842 750 844 q 775 807 775 832 l 775 490 l 775 358 q 776 319 775 332 q 790 297 778 306 q 818 289 803 288 q 842 279 832 290 q 853 254 851 268 m 432 744 q 433 749 433 746 q 435 754 433 753 q 414 790 435 781 q 376 779 392 799 q 374 740 361 760 q 408 725 386 721 q 426 736 419 729 q 432 744 429 739 z "},"":{"ha":833,"x_min":-1,"x_max":726,"o":"m 724 260 q 724 200 726 244 q 674 83 718 139 q 568 17 642 43 q 451 0 524 0 l 264 0 l 175 0 q 135 6 144 0 q 117 44 117 17 l 117 97 l 117 479 l 117 511 q 72 544 111 544 q 58 544 69 544 q 42 544 47 543 q 28 546 38 544 q 15 551 19 547 q 6 563 10 556 q 0 583 1 571 q 0 611 -1 594 q 1 632 1 628 l 1 676 q 6 700 1 692 q 57 719 18 719 l 211 719 l 294 719 q 318 713 304 719 l 324 708 q 329 710 326 708 q 346 715 335 713 q 450 683 406 732 q 471 617 474 654 q 444 554 468 581 q 383 526 419 526 q 374 526 381 526 q 363 526 368 526 q 353 526 357 526 q 336 531 340 531 q 333 522 333 531 q 333 511 333 521 q 333 498 333 501 q 335 487 333 494 q 338 475 336 479 q 344 467 340 471 q 354 460 349 463 q 378 454 364 454 l 428 454 q 565 442 519 454 q 626 415 599 432 q 675 375 646 404 q 708 319 697 353 q 713 306 710 315 q 718 290 717 296 q 721 275 719 285 q 724 260 722 265 m 342 615 q 351 597 340 604 q 375 589 363 589 q 406 611 399 589 q 396 649 414 633 q 357 651 378 663 q 342 615 342 642 m 508 242 q 493 292 506 275 q 449 317 475 310 q 392 324 418 324 q 340 311 349 324 q 333 250 333 300 q 335 172 333 181 q 350 147 335 153 q 383 144 357 144 q 443 150 429 144 q 493 183 482 164 q 508 242 508 208 z "},"":{"ha":833,"x_min":1,"x_max":646,"o":"m 644 697 q 646 688 646 694 l 646 561 l 646 313 l 646 93 l 646 40 q 618 1 646 8 q 583 0 607 0 l 525 0 q 496 13 507 0 q 486 29 489 19 q 484 38 485 32 q 482 47 483 44 q 450 19 471 32 q 425 10 439 14 q 401 3 411 6 q 374 1 390 1 q 349 0 357 0 q 322 0 342 0 q 296 0 301 0 l 51 0 l 32 0 q 4 22 11 3 q 1 61 1 29 l 1 275 l 1 549 l 1 689 q 19 719 4 710 q 49 724 29 724 l 174 724 q 201 722 197 724 q 218 711 214 718 q 228 708 222 706 q 293 722 257 726 q 359 671 339 714 q 358 586 379 628 q 297 542 339 549 q 264 540 281 536 q 244 546 258 540 q 235 550 242 546 q 226 554 229 554 l 226 507 q 231 474 226 481 q 238 463 233 467 q 249 458 242 460 q 260 456 257 456 q 275 456 263 456 l 286 456 q 368 454 340 456 q 436 431 403 450 q 463 411 456 419 q 481 382 465 408 l 481 479 l 481 625 l 481 675 q 483 699 481 692 q 492 715 486 708 q 509 723 499 721 q 526 725 519 725 q 547 724 533 725 q 564 724 560 724 q 582 724 568 724 q 602 724 596 725 q 619 722 608 724 q 635 713 629 719 q 644 697 640 707 m 244 631 q 252 610 243 619 q 272 599 261 601 q 305 615 293 594 q 303 651 317 635 q 267 661 289 668 q 251 649 258 658 q 244 631 243 640 m 397 233 q 371 288 400 264 q 311 307 358 297 q 253 308 286 311 q 226 274 226 307 l 226 197 q 239 154 226 164 q 288 147 247 147 q 340 153 317 147 q 385 182 367 157 q 397 233 397 199 z "},"":{"ha":833,"x_min":1,"x_max":617,"o":"m 614 242 q 614 193 617 217 q 514 29 604 75 q 340 0 461 0 l 60 0 l 36 0 q 3 24 10 0 q 1 71 1 29 l 1 340 l 1 628 l 1 688 q 17 717 4 710 q 50 722 25 722 l 186 722 q 217 711 207 722 q 225 706 222 706 l 226 707 q 229 708 228 708 q 235 712 231 710 q 240 715 239 714 q 333 704 289 735 q 363 663 353 689 q 368 613 374 638 q 345 569 363 589 q 307 544 328 550 q 269 539 286 538 q 249 544 263 539 q 236 549 244 544 l 232 551 q 226 554 228 554 l 226 486 q 238 463 228 472 q 261 454 247 454 q 386 453 365 454 q 501 425 458 447 q 583 350 561 393 q 614 242 614 297 m 246 626 q 255 607 244 615 q 276 599 265 599 q 307 619 297 599 q 300 654 317 639 q 263 660 283 669 q 246 626 246 651 m 399 228 q 393 256 394 251 q 375 282 389 271 q 318 306 356 303 q 257 308 299 308 q 226 275 229 308 l 226 208 q 235 158 226 169 q 281 147 243 147 q 333 150 317 147 q 381 176 368 158 q 394 201 389 190 q 396 207 394 203 q 397 214 397 211 q 399 228 397 222 z "},"":{"ha":833,"x_min":-1,"x_max":717,"o":"m 714 403 q 713 313 717 365 q 651 138 701 214 q 504 25 596 56 q 321 1 413 -4 q 228 11 268 4 q 142 42 192 19 q 14 168 63 78 q 0 206 -1 197 q 25 232 3 226 q 135 263 51 240 q 143 265 136 263 q 151 267 150 267 q 159 269 153 268 q 168 271 165 271 q 176 271 171 271 q 183 270 181 271 q 190 267 186 269 q 198 263 194 265 q 204 257 201 261 q 217 238 210 251 q 228 221 225 225 q 260 189 236 207 q 343 168 289 168 q 428 192 397 168 q 478 265 464 218 q 469 300 485 288 q 440 306 463 306 l 315 306 q 288 311 296 306 q 269 343 269 319 q 269 361 269 351 q 269 382 269 371 q 269 399 269 393 q 282 432 269 421 q 311 440 293 440 l 369 440 l 433 440 q 464 443 457 440 q 463 518 496 456 q 393 572 436 558 q 304 576 350 585 q 228 529 258 568 q 199 501 213 508 q 168 504 190 499 q 117 524 157 508 q 54 549 76 540 q 26 563 35 554 q 25 599 11 578 q 168 718 76 682 q 350 747 244 747 q 536 708 457 747 q 613 656 583 685 q 644 621 635 633 q 668 585 654 610 q 714 403 710 514 m 390 656 q 385 679 393 661 q 365 692 378 688 q 331 679 344 699 q 329 642 318 660 q 365 628 342 624 q 383 638 375 629 q 390 656 392 646 z "},"":{"ha":833,"x_min":0,"x_max":797,"o":"m 794 426 q 796 339 797 368 q 757 160 789 231 q 646 31 719 71 q 557 3 608 10 q 514 0 526 0 q 499 1 507 0 q 483 3 492 1 q 468 4 474 4 q 315 78 371 11 q 269 149 286 114 q 240 229 256 178 q 235 255 238 236 q 227 285 232 274 q 210 303 222 297 q 174 297 189 315 q 165 267 165 285 l 165 56 q 129 13 165 14 q 36 13 83 10 q 0 51 0 15 l 0 107 l 0 346 l 0 604 l 0 682 q 8 722 0 713 q 38 735 19 735 l 94 735 q 110 735 97 735 q 128 735 122 736 q 142 733 133 735 q 156 725 151 731 q 164 711 161 719 q 165 683 165 707 l 165 625 l 165 519 q 174 490 165 499 q 211 483 186 478 q 232 499 225 488 q 244 529 239 510 q 251 554 250 549 q 267 594 260 582 q 277 614 269 601 q 288 632 285 626 q 289 639 289 636 l 289 643 l 289 657 q 304 697 289 674 q 379 733 329 733 q 393 732 389 733 q 403 729 399 729 q 410 733 406 729 q 430 738 415 735 q 453 743 444 742 q 542 746 500 750 q 632 724 585 744 q 753 601 708 690 q 794 426 790 525 m 390 622 q 394 626 392 624 q 399 629 397 628 q 404 642 400 631 q 403 663 407 649 q 372 682 394 683 q 342 660 349 681 q 351 624 335 638 q 390 622 374 607 m 626 383 q 626 397 626 388 q 625 411 625 406 q 533 578 618 564 q 440 550 474 589 q 400 451 410 518 q 396 349 393 411 q 411 246 399 278 q 436 201 422 221 q 481 172 453 181 q 575 190 533 156 q 618 282 611 222 q 626 383 626 349 z "},"":{"ha":833,"x_min":-1,"x_max":697,"o":"m 696 701 q 697 669 697 699 l 697 493 l 697 242 l 697 58 l 697 26 q 674 3 696 8 q 647 0 665 0 l 533 0 q 478 19 488 0 q 474 40 474 26 l 474 81 l 474 201 q 474 222 474 208 q 475 246 475 235 q 474 267 475 257 q 464 294 474 292 q 452 294 461 296 q 442 293 443 293 q 381 257 404 289 q 347 200 376 250 q 306 122 338 182 q 257 32 275 63 q 206 0 239 3 l 117 0 l 22 0 q 0 14 4 0 q 6 36 -1 17 q 50 122 21 64 q 94 208 79 181 q 131 260 100 219 q 154 285 138 268 q 178 303 158 290 q 186 306 179 303 q 198 311 193 308 q 203 318 203 314 q 198 325 203 322 q 183 331 193 328 l 175 333 q 111 372 136 347 l 96 385 q 90 393 93 388 q 85 401 88 399 q 65 431 76 411 q 47 507 47 469 q 53 581 47 556 q 85 647 60 613 q 215 717 128 701 q 347 724 251 724 l 571 724 l 656 724 q 671 722 667 724 q 696 701 685 721 m 326 653 q 332 632 319 644 q 349 618 338 622 q 383 629 369 611 q 386 667 396 647 q 351 681 374 686 q 333 671 342 679 q 326 653 325 663 m 474 538 q 435 571 469 571 l 357 571 q 300 558 325 571 q 271 513 276 544 q 283 460 267 485 q 329 431 299 438 q 381 425 346 425 l 419 425 l 447 425 q 474 464 474 432 l 474 538 z "},"":{"ha":833,"x_min":-4,"x_max":774,"o":"m 769 24 q 769 11 774 18 q 757 1 764 4 q 739 0 751 0 l 582 0 q 562 4 571 0 q 547 14 553 8 q 537 31 542 19 q 530 47 532 42 q 524 67 528 53 q 518 86 519 82 q 479 119 510 117 l 426 119 l 331 119 l 283 119 q 251 99 261 115 q 235 58 242 82 q 222 22 229 33 q 182 0 208 0 l 104 0 l 26 0 q 8 3 14 0 q 1 29 -4 11 q 3 38 1 32 q 7 46 6 43 q 25 90 10 51 l 150 426 q 202 565 168 475 q 249 688 236 654 q 264 711 254 703 q 306 725 279 725 l 468 725 q 522 685 508 725 l 560 586 l 693 232 l 747 86 q 756 65 750 79 q 764 43 761 50 q 767 34 764 42 q 769 24 769 26 m 353 639 q 363 621 353 629 q 383 611 372 613 q 403 617 393 610 q 415 632 413 624 q 406 668 424 653 q 369 672 389 685 q 353 639 353 664 m 454 297 q 450 315 454 307 q 440 349 444 338 q 424 402 435 368 q 410 450 414 436 q 405 467 408 456 q 399 488 401 479 q 393 504 396 497 q 382 518 383 518 q 372 504 376 518 q 328 356 356 456 q 313 308 317 325 q 317 285 310 294 q 338 276 324 276 l 418 276 l 438 276 q 449 285 446 279 q 452 292 451 288 q 454 297 453 296 z "},"":{"ha":833,"x_min":0,"x_max":668,"o":"m 664 239 q 661 164 668 197 q 633 94 654 125 q 578 44 615 67 q 422 1 513 6 q 285 0 376 0 l 64 0 q 19 4 26 0 q 0 42 0 15 l 0 186 l 0 425 l 0 632 l 0 683 q 19 721 0 710 q 56 725 26 725 l 132 725 l 367 725 l 554 725 q 590 721 583 725 q 610 657 610 708 l 610 604 q 601 578 610 590 q 557 567 592 567 l 340 567 l 263 567 q 225 540 229 567 q 224 499 224 533 q 226 464 224 471 q 234 454 229 458 q 243 448 239 450 q 255 445 247 446 q 266 444 263 444 q 279 444 269 444 q 290 444 289 444 q 453 438 399 444 q 600 376 549 425 q 664 239 657 321 m 276 646 q 285 625 275 635 q 306 614 294 615 q 339 632 329 614 q 333 669 351 654 q 297 677 319 686 q 276 646 275 668 m 443 232 q 407 286 444 269 q 340 299 386 296 l 269 299 q 226 281 236 299 q 224 258 224 274 l 224 215 q 238 164 224 174 q 253 157 244 158 q 278 156 261 156 q 297 157 296 157 l 360 157 q 418 176 397 163 q 443 232 438 192 z "},"":{"ha":833,"x_min":0,"x_max":657,"o":"m 654 233 q 654 174 657 218 q 636 115 653 151 q 600 67 619 85 q 553 31 578 42 q 496 14 535 22 l 432 6 q 374 0 393 0 l 251 0 l 68 0 l 35 0 q 1 35 4 4 l 1 114 l 1 288 l 1 643 q 1 660 1 647 q 0 679 0 672 q 3 696 0 686 q 10 713 6 706 q 44 724 19 724 l 103 724 l 408 724 q 531 697 479 724 q 579 660 558 682 q 611 607 604 633 q 615 593 611 604 q 619 575 618 582 q 622 544 622 556 q 613 483 622 511 q 535 397 594 429 q 528 381 518 390 q 553 369 529 379 q 604 338 588 356 q 654 233 654 288 m 269 646 q 278 625 268 635 q 299 614 288 615 q 332 632 322 614 q 328 669 343 651 q 290 677 313 686 q 269 646 268 668 m 214 469 q 229 446 214 456 q 254 439 238 439 q 290 440 265 439 q 326 440 314 440 q 378 453 358 440 q 403 497 399 468 q 394 547 407 525 q 353 572 381 569 q 306 574 336 574 l 261 574 q 254 574 258 574 q 246 574 250 574 q 239 574 242 574 q 218 557 231 572 q 214 536 214 550 l 214 469 m 432 238 q 422 269 433 247 q 396 292 414 283 q 329 303 374 303 l 254 303 q 215 278 221 303 q 214 253 214 271 l 214 206 q 215 183 214 186 q 235 164 221 169 q 258 160 243 160 l 306 160 q 365 161 346 160 q 417 183 401 167 q 432 238 432 204 z "},"":{"ha":833,"x_min":0,"x_max":568,"o":"m 567 699 q 568 681 568 693 l 568 643 l 568 565 q 551 525 568 538 q 530 513 543 517 q 509 508 517 508 q 481 508 501 507 q 457 508 460 508 l 285 508 l 249 508 q 228 499 236 508 q 219 475 219 489 q 218 413 217 475 l 219 350 l 219 201 l 219 111 l 219 35 q 204 6 219 18 q 171 1 197 1 l 85 1 q 66 1 82 1 q 42 1 50 0 q 23 4 35 1 q 6 15 11 7 q 0 35 0 22 l 0 257 l 0 607 l 0 689 q 19 721 0 713 q 46 724 28 724 l 357 724 l 504 724 l 533 724 q 556 717 544 724 q 567 699 567 710 m 242 651 q 234 672 243 663 q 213 682 225 681 q 181 665 192 685 q 185 628 171 646 q 221 619 199 613 q 242 651 243 631 z "},"":{"ha":833,"x_min":0,"x_max":824,"o":"m 821 263 l 821 242 l 821 197 l 821 76 q 822 58 821 74 q 822 33 824 43 q 817 15 821 22 q 803 5 813 8 q 788 1 794 1 q 768 1 782 0 q 751 1 754 1 l 692 1 q 664 3 667 1 q 651 11 656 6 q 644 26 646 17 q 641 41 642 35 q 641 59 640 47 q 642 74 642 71 q 636 107 642 99 q 608 122 629 119 l 515 122 l 449 122 l 274 122 l 218 122 q 192 113 199 119 q 180 91 182 104 q 180 60 178 78 q 181 35 182 42 q 164 6 178 13 q 136 1 157 1 l 35 1 q 10 11 19 1 q 0 36 0 21 l 0 126 l 0 238 l 0 258 q 24 286 4 279 q 42 288 26 288 l 58 292 q 86 319 81 301 q 107 397 99 356 q 124 478 122 474 q 126 504 125 490 q 129 535 128 518 q 132 563 131 553 q 138 718 138 614 l 138 779 l 138 811 q 175 844 140 844 l 331 844 l 578 844 l 672 844 q 684 844 676 844 q 698 844 692 844 q 710 844 704 844 q 743 808 743 842 l 743 757 l 743 525 l 743 333 q 760 293 743 303 q 776 288 765 290 l 786 289 q 796 288 796 289 q 821 263 821 281 m 379 761 q 385 738 374 753 q 403 726 392 729 q 438 739 424 719 q 439 776 451 758 q 406 790 425 794 q 386 781 394 789 q 379 761 378 772 m 521 633 q 513 656 521 644 q 474 667 501 667 l 396 667 q 354 665 368 667 q 343 664 346 665 q 342 657 342 664 q 340 632 340 649 q 332 524 340 596 q 314 406 325 458 l 304 350 q 300 303 294 314 q 332 288 306 288 l 404 288 l 476 288 q 511 299 503 288 q 521 328 521 308 l 521 376 l 521 633 z "},"":{"ha":833,"x_min":1,"x_max":606,"o":"m 603 160 q 604 126 604 158 l 604 56 q 605 44 604 53 q 605 29 606 35 q 603 17 604 24 q 599 6 603 10 q 588 1 594 1 l 531 1 l 254 1 l 29 1 q 1 19 1 1 q 1 34 1 26 q 1 52 1 42 q 1 68 1 63 l 1 324 l 1 606 l 1 686 q 18 717 1 717 l 192 717 l 482 717 l 567 717 l 581 717 q 594 697 594 715 q 594 659 594 683 q 594 615 594 635 q 594 578 594 594 q 579 554 592 560 q 558 551 575 551 l 293 551 l 247 551 q 228 550 231 551 q 221 519 218 546 q 222 467 221 475 q 227 456 224 460 q 237 451 231 453 q 247 449 243 450 q 260 449 251 449 q 271 450 268 450 l 407 450 l 532 450 l 553 450 q 567 429 567 449 l 567 365 q 567 351 567 360 q 568 334 568 342 q 567 321 568 326 q 563 310 565 314 q 553 306 560 307 q 542 303 546 304 q 529 303 538 303 q 518 304 521 304 l 257 304 l 236 304 q 222 282 222 300 l 222 217 l 222 190 q 225 181 222 189 q 243 169 231 169 l 278 169 l 414 169 l 550 169 q 563 170 553 169 q 580 171 574 171 q 593 168 586 171 q 603 160 600 165 m 258 639 q 265 619 257 628 q 285 608 274 611 q 316 625 306 604 q 311 661 326 646 q 277 667 297 674 q 258 639 257 660 z "},"":{"ha":833,"x_min":-26,"x_max":797,"o":"m 792 53 q 779 8 797 21 q 728 1 768 1 l 647 1 q 610 28 621 4 q 592 85 608 31 q 581 125 589 99 q 569 164 574 151 q 560 191 567 174 q 551 211 553 208 q 525 257 542 240 q 511 267 519 264 q 493 250 500 269 q 492 206 492 246 l 492 42 q 475 4 492 14 q 424 1 469 1 l 332 1 q 288 10 294 1 q 279 51 279 19 l 279 135 l 279 219 q 272 260 279 250 q 261 267 267 267 q 249 262 256 268 q 238 249 243 256 q 228 231 233 242 q 220 215 222 221 q 215 204 218 210 q 210 190 214 199 q 203 173 206 181 q 199 158 200 165 q 175 74 194 142 q 157 22 158 25 q 117 1 143 1 l 31 1 q -14 14 -3 1 q -19 67 -26 28 q -6 128 -11 108 q 9 162 -1 140 q 22 190 19 183 q 46 244 29 208 q 56 271 49 251 q 69 300 64 290 q 99 349 96 346 q 105 356 101 351 q 112 363 108 360 q 118 368 115 365 q 129 376 121 369 q 140 385 138 382 q 141 399 143 394 q 130 413 139 404 q 119 424 121 421 q 90 465 97 449 q 80 492 86 474 q 69 519 74 511 q 36 567 56 549 q 13 576 26 576 q -8 583 -6 579 q -11 600 -11 588 l -11 636 l -11 703 q 3 725 -8 718 q 32 729 8 729 q 93 724 82 726 q 181 647 147 713 q 196 612 189 631 q 210 569 203 593 q 222 532 218 544 q 244 482 233 497 q 275 479 263 457 q 279 522 279 489 l 279 613 l 279 685 q 296 722 279 715 q 349 725 301 725 l 440 725 q 483 715 475 725 q 492 674 492 706 l 492 508 q 501 471 492 475 q 532 493 514 465 q 547 527 540 508 q 560 572 554 546 q 571 608 567 597 q 638 706 594 675 q 689 726 664 725 l 747 731 q 781 697 781 731 l 781 622 q 774 579 781 585 q 767 577 771 578 q 758 576 763 576 q 750 575 753 575 q 729 563 738 572 q 721 553 728 561 q 711 540 714 546 q 697 513 706 532 q 688 487 693 504 q 678 461 682 469 q 646 418 664 436 q 638 410 644 415 q 629 400 632 404 q 638 379 625 390 q 676 340 665 357 q 706 289 689 325 q 753 179 715 268 q 792 53 792 93 m 418 651 q 410 672 419 663 q 390 683 401 681 q 357 668 371 688 q 360 629 344 650 q 397 619 374 610 q 418 651 422 629 z "},"":{"ha":833,"x_min":0,"x_max":628,"o":"m 622 272 q 618 192 628 226 q 525 56 600 103 q 364 1 453 8 q 189 15 254 -4 q 50 110 97 40 q 10 189 24 146 q 10 225 0 217 q 36 235 15 232 l 151 243 q 179 244 168 246 q 211 226 193 244 q 235 196 233 197 q 268 176 240 190 q 349 178 308 163 q 399 235 390 190 q 401 271 403 254 q 379 300 399 283 q 310 331 349 326 q 274 332 297 332 q 239 340 246 332 q 229 374 229 350 l 229 418 q 253 443 232 440 q 274 444 260 444 q 293 443 288 443 q 358 483 342 450 q 360 560 379 529 q 288 586 343 589 q 219 553 239 583 q 165 522 197 518 q 51 536 132 528 q 25 544 32 539 q 18 576 10 557 q 64 651 40 626 q 126 706 90 685 q 210 738 154 722 q 297 747 242 747 q 379 742 331 749 q 532 676 481 726 q 579 604 565 644 q 583 524 589 575 q 551 449 579 481 q 521 421 543 438 q 513 407 511 411 q 522 396 513 399 q 538 388 525 394 q 558 376 551 382 q 590 347 578 361 q 622 272 613 319 m 361 660 q 353 681 363 671 q 332 692 343 690 q 299 674 310 694 q 304 638 289 653 q 342 629 321 618 q 361 660 364 638 z "},"":{"ha":833,"x_min":0,"x_max":689,"o":"m 511 721 l 663 721 q 681 713 672 721 q 689 694 689 706 l 689 26 q 681 8 689 17 q 663 0 672 0 l 507 0 q 488 8 496 0 q 479 26 479 15 l 479 382 q 474 395 479 393 q 464 388 469 397 l 276 43 l 265 22 q 224 0 250 0 l 26 0 q 8 8 15 0 q 0 26 0 15 l 0 694 q 8 713 0 706 q 26 721 15 721 l 182 721 q 201 713 193 721 q 210 694 210 706 l 210 336 q 215 323 210 325 q 225 331 219 321 l 350 547 l 413 653 q 412 660 415 657 q 404 663 408 664 q 350 656 376 656 q 228 696 281 656 q 181 763 181 735 q 193 791 181 778 q 224 804 206 804 q 275 772 250 804 l 281 767 q 288 768 283 764 q 324 799 300 790 q 371 800 347 808 q 408 767 397 792 q 413 763 410 764 q 417 765 415 763 q 424 772 421 768 q 476 804 449 804 q 508 786 496 804 q 513 749 519 768 q 506 731 511 742 q 511 721 499 721 m 372 732 q 367 750 374 742 q 351 760 361 758 q 322 738 328 763 q 344 710 319 713 q 372 732 369 707 z "},"":{"ha":833,"x_min":0,"x_max":689,"o":"m 511 721 l 663 721 q 681 713 672 721 q 689 694 689 706 l 689 26 q 681 8 689 17 q 663 0 672 0 l 507 0 q 488 8 496 0 q 479 26 479 15 l 479 382 q 474 395 479 393 q 464 388 469 397 l 276 43 l 265 22 q 224 0 250 0 l 26 0 q 8 8 15 0 q 0 26 0 15 l 0 694 q 8 713 0 706 q 26 721 15 721 l 182 721 q 201 713 193 721 q 210 694 210 706 l 210 336 q 215 323 210 325 q 225 331 219 321 l 350 547 l 413 653 q 412 660 415 657 q 404 663 408 664 q 350 656 376 656 q 228 696 281 656 q 181 763 181 735 q 193 791 181 778 q 224 804 206 804 q 275 772 250 804 l 281 767 q 288 768 283 764 q 324 799 300 790 q 371 800 347 808 q 408 767 397 792 q 413 763 410 764 q 417 765 415 763 q 424 772 421 768 q 476 804 449 804 q 508 786 496 804 q 513 749 519 768 q 506 731 511 742 q 511 721 499 721 m 372 732 q 367 750 374 742 q 351 760 361 758 q 322 738 328 763 q 344 710 319 713 q 372 732 369 707 z "},"":{"ha":833,"x_min":0,"x_max":685,"o":"m 679 25 q 679 10 685 17 q 664 1 674 3 l 643 1 l 528 1 q 458 4 467 1 q 426 24 440 8 q 410 60 424 26 q 375 140 388 113 l 346 210 q 322 265 332 239 q 310 289 311 286 q 278 290 293 308 q 246 256 265 278 q 228 226 235 244 q 224 194 224 217 l 224 122 l 224 63 q 224 53 224 60 q 224 42 224 47 q 224 32 224 36 q 201 3 221 10 q 176 1 197 1 l 61 1 q 53 1 58 1 q 44 1 47 1 q 35 1 40 1 q 28 2 31 1 q 21 4 25 3 q 14 8 17 6 q 8 13 11 10 q 4 21 6 17 q 0 56 0 29 l 0 235 l 0 485 l 0 667 q 1 699 0 693 q 26 724 6 719 q 35 724 31 724 q 44 724 39 724 q 51 724 49 724 l 167 724 q 174 724 168 724 q 182 724 179 724 q 190 724 185 724 q 197 723 194 724 q 203 722 199 722 q 209 719 207 721 q 214 715 211 717 q 219 710 217 713 q 222 703 221 707 q 225 696 225 697 q 233 694 228 694 q 242 701 236 696 q 249 707 247 706 q 285 721 263 717 q 354 700 324 728 q 365 685 364 686 q 369 678 367 683 q 375 669 372 672 q 390 665 381 665 q 403 669 399 665 q 414 686 408 674 q 425 703 419 699 q 458 721 442 715 q 485 724 468 724 l 535 724 l 631 724 q 656 711 650 724 q 647 683 658 706 q 624 651 640 671 q 604 625 608 631 q 532 524 567 571 q 513 495 528 518 q 488 461 497 472 q 481 407 467 439 q 504 363 490 386 l 613 154 q 660 64 614 151 q 674 38 671 42 l 675 32 q 679 25 678 26 m 328 639 q 321 660 329 650 q 301 671 313 669 q 269 655 281 674 q 271 618 257 636 q 308 609 285 601 q 328 639 331 617 m 310 547 q 286 558 311 553 q 250 568 261 561 q 226 572 229 581 q 225 543 225 569 q 224 515 225 533 q 224 488 224 497 q 225 458 224 464 q 247 456 236 446 q 267 485 257 467 l 297 526 q 310 547 310 543 z "},"":{"ha":833,"x_min":-1,"x_max":729,"o":"m 725 25 q 726 12 729 18 q 715 3 722 6 q 697 1 713 1 l 524 1 q 483 31 494 1 q 465 89 476 50 q 441 165 457 115 q 418 236 425 214 l 390 322 q 378 363 382 350 l 369 379 q 356 374 361 383 q 350 354 351 365 l 325 281 q 294 186 317 254 q 260 82 272 118 l 243 29 q 206 1 235 4 l 140 1 l 38 1 q 29 1 36 1 q 19 1 22 1 q 10 3 15 1 q 3 7 6 4 q 0 15 0 10 q 6 40 -1 21 q 28 106 13 63 q 53 169 44 149 l 194 565 q 216 626 201 586 q 239 686 231 667 q 254 711 243 701 q 307 721 267 721 l 411 721 q 468 718 463 721 q 492 690 486 707 q 506 651 500 665 l 635 283 q 725 25 664 197 m 396 626 q 389 649 401 636 q 371 661 383 657 q 335 647 349 667 q 335 610 321 628 q 369 597 351 592 q 396 626 396 603 z "},"":{"ha":833,"x_min":1,"x_max":768,"o":"m 767 697 q 768 682 768 693 l 768 653 l 768 393 l 768 107 l 768 38 q 733 1 768 1 l 611 1 q 576 44 576 1 l 576 308 l 576 339 q 571 351 576 347 q 556 343 563 357 q 554 340 556 342 q 553 338 553 339 q 550 338 551 339 q 549 332 550 336 q 547 325 547 328 q 538 299 544 317 q 529 271 532 281 q 485 132 515 224 q 477 106 479 113 q 466 87 475 99 q 443 71 457 75 q 400 67 429 67 l 343 67 q 288 114 303 67 q 268 176 281 135 q 249 238 256 217 q 238 272 246 249 q 226 307 229 296 q 221 325 225 310 q 214 347 217 340 q 202 353 210 354 q 192 343 194 351 q 190 319 190 336 l 190 186 l 190 53 l 190 29 q 181 10 189 18 q 163 1 172 1 l 46 1 q 13 8 21 1 q 1 36 1 19 l 1 219 l 1 528 l 1 689 q 25 722 1 715 q 60 724 31 724 l 201 724 q 232 721 221 724 q 258 689 251 713 q 268 660 263 679 q 272 650 269 658 q 276 639 274 642 q 301 654 288 628 q 379 707 331 706 q 463 663 433 710 q 467 652 463 661 q 475 638 471 643 q 485 635 479 633 q 493 650 486 635 q 504 683 496 661 q 526 717 508 704 q 549 724 538 724 l 558 724 l 697 724 l 736 724 q 767 697 757 722 m 351 615 q 358 594 350 604 q 378 583 367 585 q 413 597 400 581 q 410 635 424 615 q 374 646 394 653 q 351 615 349 638 m 458 547 q 456 553 458 550 q 447 547 453 550 q 440 543 442 544 q 433 539 438 542 q 426 534 429 536 q 419 531 422 532 q 378 524 400 521 q 339 535 354 526 q 335 538 338 536 q 330 540 332 539 q 326 544 328 542 q 322 547 324 546 q 313 556 314 556 q 308 542 306 556 q 319 504 311 529 l 361 381 q 375 339 369 353 q 385 319 382 321 q 396 346 392 322 q 435 467 410 386 q 444 497 438 478 q 453 522 450 515 q 458 547 460 542 z "},"":{"ha":833,"x_min":1,"x_max":693,"o":"m 692 694 q 693 681 693 692 l 693 649 l 693 372 l 693 88 l 693 35 q 671 3 690 10 q 632 1 667 1 l 503 1 q 469 24 478 1 q 468 54 468 28 l 468 203 l 468 256 q 456 286 468 278 q 421 293 446 293 l 353 293 l 279 293 q 246 292 250 293 q 225 258 225 283 l 225 204 l 225 88 q 226 70 225 83 q 226 49 226 57 q 224 29 226 40 q 217 12 222 18 q 201 3 211 6 q 163 1 194 1 l 85 1 q 68 1 81 1 q 47 0 56 0 q 29 2 39 0 q 13 9 19 4 q 3 24 6 14 q 1 72 1 28 l 1 344 l 1 633 l 1 690 q 21 721 1 714 q 58 724 28 724 l 189 724 q 221 707 211 724 q 225 685 225 697 l 225 671 l 242 671 q 277 688 257 671 q 307 708 297 706 q 372 707 339 718 q 410 677 394 700 q 428 629 426 654 q 417 580 429 603 q 382 546 404 557 q 301 543 340 526 q 281 556 293 547 q 274 562 279 557 q 266 569 269 567 q 257 572 263 572 l 238 572 q 225 564 225 567 l 225 504 q 251 472 225 478 q 289 471 258 471 l 428 471 q 458 482 449 471 q 468 514 468 492 l 468 658 l 468 693 q 500 724 472 721 l 543 724 l 622 724 q 635 724 626 724 q 650 724 643 724 q 663 724 657 724 q 683 714 674 722 q 692 694 693 706 m 306 626 q 329 592 301 604 q 366 606 353 585 q 365 644 379 626 q 329 656 351 663 q 313 644 319 651 q 308 636 308 640 q 307 631 308 635 q 306 626 306 628 z "},"":{"ha":833,"x_min":-11,"x_max":750,"o":"m 749 428 q 750 371 750 408 q 693 144 750 232 q 513 17 625 43 q 397 0 446 0 q 281 8 328 0 q 224 21 254 13 q 169 44 206 28 q 81 118 124 64 q 24 218 46 161 q 1 335 7 264 q 42 572 -11 472 q 113 664 69 625 q 215 725 151 699 q 453 744 318 764 q 660 646 590 725 l 682 621 q 690 608 685 617 q 697 597 696 600 q 724 543 717 568 q 740 488 735 515 q 749 428 747 458 m 339 660 q 347 640 338 649 q 367 628 356 631 q 401 643 386 622 q 406 661 406 649 q 399 679 406 672 q 383 692 394 688 q 363 692 372 696 q 345 679 353 689 q 339 660 338 669 m 528 383 q 527 397 528 389 q 526 411 526 406 q 497 519 524 472 q 403 578 468 568 q 294 558 339 588 q 232 465 249 529 q 224 350 218 417 q 249 239 229 276 q 336 172 281 182 q 447 183 401 160 q 514 269 496 207 q 528 383 521 290 z "},"":{"ha":833,"x_min":1,"x_max":693,"o":"m 693 92 l 693 33 q 676 6 690 13 q 642 0 668 0 l 507 0 q 480 11 490 0 q 469 39 469 22 l 469 290 l 469 439 l 469 511 q 450 543 469 535 q 415 546 443 546 l 271 546 q 239 539 249 546 q 225 510 225 532 l 225 486 l 225 411 l 225 251 l 225 183 l 225 146 l 225 35 q 224 32 225 33 q 223 26 224 29 q 222 21 222 22 q 207 4 215 10 q 172 0 200 0 l 99 0 l 39 0 q 7 15 17 0 q 1 64 1 22 l 1 328 l 1 621 l 1 688 q 12 713 1 703 q 38 722 22 722 l 242 722 l 553 722 l 644 722 l 658 722 q 679 715 669 722 q 692 697 682 713 q 693 681 693 694 l 693 651 l 693 381 l 693 92 m 379 643 q 370 663 381 654 q 349 672 360 671 q 318 652 326 674 q 326 615 310 631 q 363 611 342 600 q 379 643 379 621 z "},"":{"ha":833,"x_min":1,"x_max":618,"o":"m 617 517 q 614 461 618 507 q 600 403 613 438 q 571 353 590 382 q 479 289 544 313 q 365 269 431 272 l 299 269 q 244 265 253 269 q 226 224 226 256 l 226 165 l 226 90 q 227 73 226 85 q 228 51 228 61 q 226 33 228 42 q 210 6 225 15 q 165 0 200 0 l 79 0 l 31 0 q 1 35 1 6 l 1 53 l 1 169 l 1 526 l 1 658 q 13 718 1 708 q 46 726 24 726 l 104 726 l 282 726 q 324 727 289 726 q 372 727 358 728 q 411 724 385 726 q 458 717 438 722 q 497 706 478 713 q 585 632 554 685 q 617 517 617 579 m 242 649 q 250 628 240 638 q 271 615 260 618 q 304 633 293 613 q 301 671 315 654 q 264 681 285 690 q 248 667 256 678 q 242 649 240 657 m 399 503 q 371 558 400 533 q 314 578 350 575 q 263 579 293 583 q 228 550 232 575 q 226 485 226 539 q 232 431 226 439 q 253 417 242 418 l 282 417 q 338 422 314 417 q 385 453 367 429 q 399 503 399 472 z "},"":{"ha":833,"x_min":-1,"x_max":700,"o":"m 697 236 q 692 200 700 232 q 676 165 686 183 q 569 44 635 85 q 492 14 533 24 q 408 1 464 7 l 325 1 q 242 15 288 3 q 161 47 190 28 q 97 100 124 69 q 47 169 69 131 q 17 246 33 192 q 1 332 7 274 q 1 418 -1 376 q 47 588 8 508 q 165 706 82 657 q 333 750 228 742 q 504 733 432 754 q 642 638 585 708 q 683 567 660 613 q 685 532 694 544 q 661 517 678 521 q 550 493 625 510 q 492 507 503 481 q 451 558 481 533 q 417 576 436 569 q 378 582 408 579 q 297 563 336 589 q 267 536 279 550 q 244 500 261 529 q 226 417 236 482 q 226 331 222 374 q 290 188 236 217 q 328 172 322 174 l 369 168 q 446 190 410 168 q 492 253 472 208 q 498 269 493 256 q 507 289 503 282 q 542 300 519 306 q 638 272 553 299 q 653 267 639 272 q 674 260 668 263 q 687 251 679 258 q 697 236 694 244 m 350 657 q 360 637 349 646 q 383 629 372 628 q 414 651 407 629 q 403 688 421 672 q 365 690 388 703 q 350 657 350 681 z "},"":{"ha":833,"x_min":0,"x_max":679,"o":"m 678 697 q 679 676 679 694 l 679 633 l 679 590 q 678 569 679 576 q 639 544 669 544 l 486 544 q 450 517 457 544 l 450 489 l 450 333 l 450 138 l 450 35 q 418 1 450 4 l 358 1 l 271 1 q 232 17 242 1 q 226 47 226 26 l 226 104 l 226 292 l 226 467 q 227 485 226 469 q 227 509 228 501 q 222 526 226 517 q 208 542 218 536 q 157 544 203 544 l 61 544 q 15 550 25 544 q 0 594 0 558 l 0 683 q 24 722 0 715 q 47 724 31 724 l 99 724 l 469 724 l 615 724 l 643 724 q 661 719 653 724 l 671 711 l 678 697 m 372 649 q 364 669 375 658 q 343 679 357 676 q 310 663 321 683 q 314 625 299 642 q 351 617 329 608 q 372 649 374 626 z "},"":{"ha":833,"x_min":3,"x_max":772,"o":"m 765 717 q 756 688 772 710 l 558 392 q 507 310 515 332 q 499 190 499 285 q 499 140 499 172 q 499 82 499 108 q 499 33 499 56 q 489 10 499 19 q 464 0 479 0 l 392 0 l 310 0 q 274 31 278 0 l 274 81 l 274 181 q 274 211 274 190 q 275 244 275 232 q 273 274 275 257 q 267 306 271 292 q 218 388 263 321 q 18 685 151 488 q 6 714 3 707 q 49 725 10 725 l 128 725 q 207 725 207 726 q 257 696 240 725 q 267 681 258 693 q 279 661 275 668 q 290 653 286 650 q 296 665 292 653 q 313 693 300 676 q 356 721 329 714 q 419 717 389 731 q 464 674 450 704 q 472 653 472 663 q 481 640 475 640 q 496 661 482 640 q 517 696 503 674 q 531 714 522 707 q 554 723 540 721 q 577 726 568 725 q 603 726 586 726 q 626 725 621 725 l 722 725 q 765 717 761 725 m 350 632 q 358 612 349 621 q 379 601 368 603 q 410 619 401 600 q 407 654 419 638 q 371 664 394 672 q 350 632 350 656 m 424 543 q 410 546 424 550 q 390 540 404 543 q 356 546 360 540 l 354 546 q 361 524 351 543 q 382 499 372 501 q 406 513 394 494 q 424 543 410 522 z "},"":{"ha":833,"x_min":-10,"x_max":789,"o":"m 785 436 q 789 374 789 406 q 776 257 789 307 q 711 150 757 192 q 601 94 675 115 q 542 81 579 88 q 499 54 508 75 q 497 40 497 50 q 496 28 496 31 q 482 7 490 13 q 461 0 471 0 l 435 0 l 347 0 q 306 8 315 0 q 294 29 297 15 q 293 43 293 33 q 292 57 293 53 q 244 83 285 75 q 125 118 182 94 q 40 197 71 143 q 4 314 8 250 q 44 554 -10 475 q 138 629 81 603 q 260 664 197 656 q 293 694 289 669 q 328 722 296 722 l 463 722 q 496 697 492 722 q 507 674 497 682 q 531 664 517 665 q 647 631 594 656 q 746 551 711 604 q 774 494 765 521 q 785 436 779 478 m 428 651 q 418 672 431 660 q 399 679 408 679 q 365 660 375 681 q 372 622 356 639 q 410 617 389 607 q 428 651 428 625 m 608 375 q 550 499 606 453 q 499 506 510 531 q 497 461 497 503 l 497 276 q 506 239 497 244 q 560 261 522 228 q 594 311 585 283 q 604 342 603 331 q 606 358 606 347 q 608 375 607 369 m 293 494 q 287 508 294 503 q 271 514 279 514 q 243 499 260 513 q 200 446 217 476 q 188 328 171 394 q 217 275 194 301 q 240 253 229 261 q 268 236 258 238 q 292 249 286 232 q 293 265 293 254 l 293 344 l 293 494 z "},"":{"ha":833,"x_min":1,"x_max":769,"o":"m 765 19 q 761 6 769 11 q 743 0 753 1 l 688 0 l 608 0 q 524 15 542 0 q 494 54 515 22 q 465 99 475 85 q 440 138 460 107 q 411 185 421 168 q 372 200 394 210 q 361 192 367 197 q 353 182 356 186 q 345 169 350 178 q 339 158 340 161 l 285 71 q 272 50 281 65 q 257 28 263 35 q 215 3 243 8 q 179 0 204 0 l 104 0 l 38 0 q 7 8 13 0 q 13 35 1 18 l 36 68 q 201 310 90 149 l 226 344 l 238 367 q 217 429 242 394 l 56 665 q 49 674 56 667 q 38 688 42 682 q 31 701 35 693 q 27 714 26 708 q 33 724 28 719 q 68 728 40 728 l 142 728 l 207 728 q 240 719 224 728 q 269 689 260 708 q 288 660 276 679 q 301 636 299 642 l 303 640 q 306 646 304 644 q 321 669 310 658 q 410 693 356 707 q 449 669 431 688 q 471 629 457 661 l 482 649 q 497 674 486 654 q 514 704 507 694 q 558 728 531 725 l 603 728 l 686 728 q 729 726 722 728 q 739 697 753 721 l 681 610 l 588 471 q 540 400 550 418 q 539 353 528 378 q 553 332 542 346 q 629 221 585 283 l 721 88 q 751 42 732 72 q 765 19 765 28 m 418 613 q 390 643 419 636 q 357 626 368 646 q 361 589 347 606 q 397 581 379 571 q 418 613 418 592 z "},"":{"ha":833,"x_min":3,"x_max":747,"o":"m 746 261 q 747 226 747 258 l 747 153 l 747 71 l 747 35 q 740 15 746 22 q 722 4 733 7 q 701 1 710 1 q 677 1 693 0 q 657 1 661 1 q 637 1 653 1 q 613 1 621 0 q 594 4 606 1 q 576 14 582 7 q 568 33 569 21 q 567 51 567 42 q 567 71 567 60 q 568 88 568 82 q 559 110 568 100 q 538 122 550 121 l 467 122 l 318 122 l 44 122 q 15 133 26 122 q 3 160 3 143 l 3 235 l 3 557 l 3 801 q 6 822 3 815 q 40 846 14 846 l 106 846 l 171 846 q 206 825 194 843 q 207 800 207 822 l 207 686 l 207 372 l 207 339 q 228 311 208 324 q 267 300 240 300 l 332 300 l 410 300 q 447 306 439 300 q 458 316 454 310 q 463 331 461 322 q 465 344 464 339 q 465 361 465 350 q 464 376 464 372 l 464 679 l 464 704 l 447 704 l 438 704 q 415 693 432 703 q 374 667 381 669 q 328 664 346 658 q 258 725 271 676 q 285 824 240 785 q 379 839 324 858 q 403 825 393 833 q 426 810 417 811 q 443 808 429 808 l 463 808 q 464 815 464 808 q 497 846 468 843 l 551 846 l 626 846 q 661 833 650 846 q 669 804 669 824 l 669 696 l 669 385 l 669 354 q 672 314 669 319 q 688 294 676 301 q 711 289 697 289 q 732 282 724 289 q 746 261 747 271 m 378 754 q 369 775 379 765 q 349 786 360 785 q 316 768 326 789 q 322 732 306 747 q 356 724 336 717 q 378 754 381 733 z "},"":{"ha":833,"x_min":0,"x_max":656,"o":"m 656 296 l 656 85 q 656 72 656 82 q 656 58 656 63 q 655 44 656 54 q 653 30 654 35 q 649 18 651 25 q 642 8 646 11 q 631 3 638 6 q 617 0 625 0 l 504 0 l 468 0 q 432 39 432 0 l 432 178 l 432 194 l 432 211 q 428 229 432 224 q 407 235 424 235 q 383 233 400 235 q 358 229 367 231 l 258 229 q 242 230 251 229 q 222 232 233 231 q 206 233 211 233 q 157 243 176 236 q 71 296 114 257 q 0 475 0 358 l 0 593 l 0 664 q 1 694 0 690 q 10 712 4 706 q 26 720 15 718 q 43 723 36 722 q 64 723 50 724 q 82 722 78 722 l 157 722 q 192 717 183 722 q 207 683 207 707 l 207 628 l 207 513 q 215 467 207 497 q 240 429 226 440 q 332 410 275 406 l 358 414 q 382 422 381 421 q 419 450 410 435 q 432 549 432 472 q 411 542 429 546 q 390 539 397 539 q 360 544 371 539 q 304 603 317 563 q 315 685 290 651 q 385 722 343 721 q 422 718 397 724 q 439 708 439 713 q 454 719 447 717 q 469 722 460 722 l 585 722 q 599 723 588 722 q 615 723 610 724 q 630 721 621 722 q 644 716 639 719 q 654 706 650 713 l 656 703 l 656 688 l 656 657 l 656 560 l 656 296 m 367 610 q 403 601 382 593 q 424 632 425 610 q 415 653 425 642 q 396 663 408 660 q 363 645 375 665 q 367 610 351 625 z "},"":{"ha":833,"x_min":0,"x_max":776,"o":"m 775 75 q 776 61 775 72 q 776 43 776 50 q 774 27 776 36 q 768 14 772 18 q 710 1 757 1 l 408 1 l 88 1 l 31 1 q 0 57 0 7 l 0 351 l 0 660 l 0 686 q 17 718 1 706 q 64 724 24 724 l 146 724 q 185 704 176 724 q 189 676 189 694 l 189 551 l 189 232 q 189 225 189 229 q 189 217 189 221 q 189 210 189 213 q 225 179 193 179 q 276 193 264 176 q 285 222 285 203 l 285 526 l 285 665 q 315 724 285 722 l 450 724 q 467 721 460 724 q 485 704 478 718 q 489 678 489 697 l 489 369 l 489 233 q 490 210 489 218 q 525 179 494 182 q 579 190 567 176 q 588 221 588 200 l 588 338 l 588 663 l 588 688 q 615 724 590 719 q 634 725 624 725 q 656 724 644 725 q 675 724 668 724 l 740 724 q 763 715 753 725 q 775 693 774 706 l 775 675 l 775 394 l 775 75 m 396 604 q 422 633 413 608 q 397 669 422 665 q 361 657 375 675 q 360 619 347 639 q 396 604 375 600 z "},"":{"ha":833,"x_min":-1,"x_max":853,"o":"m 853 254 l 853 207 l 853 42 q 832 3 853 14 q 811 1 828 1 l 769 1 q 749 1 763 1 q 725 0 736 0 q 704 1 714 0 q 674 42 674 6 q 674 63 674 47 q 674 90 675 79 q 667 108 672 101 q 615 122 656 122 l 349 122 l 42 122 q 11 132 21 122 q 0 163 0 146 l 0 265 l 0 644 l 0 783 q 0 789 0 785 q 25 843 0 835 q 46 844 29 844 l 89 844 l 156 844 q 179 832 171 843 q 188 811 188 821 q 189 783 189 801 q 189 781 189 782 q 189 778 189 779 l 189 424 l 189 333 q 199 310 189 319 q 225 300 210 300 q 279 317 269 300 q 285 347 285 326 l 285 403 l 285 585 l 285 761 l 285 806 q 299 838 285 825 q 349 844 307 844 l 439 844 q 482 831 474 844 q 489 800 489 821 l 489 468 l 489 340 q 501 310 489 325 q 526 300 511 300 l 557 300 q 588 336 588 304 q 588 346 588 340 q 588 358 588 351 q 588 367 588 364 l 588 532 l 588 721 l 588 811 q 599 835 589 825 q 624 844 610 844 l 700 844 q 757 842 750 844 q 775 807 775 832 l 775 490 l 775 358 q 776 319 775 332 q 790 297 778 306 q 818 289 803 288 q 842 279 832 290 q 853 254 851 268 m 432 744 q 433 749 433 746 q 435 754 433 753 q 414 790 435 781 q 376 779 392 799 q 374 740 361 760 q 408 725 386 721 q 426 736 419 729 q 432 744 429 739 z "},"":{"ha":833,"x_min":-1,"x_max":726,"o":"m 724 260 q 724 200 726 244 q 674 83 718 139 q 568 17 642 43 q 451 0 524 0 l 264 0 l 175 0 q 135 6 144 0 q 117 44 117 17 l 117 97 l 117 479 l 117 511 q 72 544 111 544 q 58 544 69 544 q 42 544 47 543 q 28 546 38 544 q 15 551 19 547 q 6 563 10 556 q 0 583 1 571 q 0 611 -1 594 q 1 632 1 628 l 1 676 q 6 700 1 692 q 57 719 18 719 l 211 719 l 294 719 q 318 713 304 719 l 324 708 q 329 710 326 708 q 346 715 335 713 q 450 683 406 732 q 471 617 474 654 q 444 554 468 581 q 383 526 419 526 q 374 526 381 526 q 363 526 368 526 q 353 526 357 526 q 336 531 340 531 q 333 522 333 531 q 333 511 333 521 q 333 498 333 501 q 335 487 333 494 q 338 475 336 479 q 344 467 340 471 q 354 460 349 463 q 378 454 364 454 l 428 454 q 565 442 519 454 q 626 415 599 432 q 675 375 646 404 q 708 319 697 353 q 713 306 710 315 q 718 290 717 296 q 721 275 719 285 q 724 260 722 265 m 342 615 q 351 597 340 604 q 375 589 363 589 q 406 611 399 589 q 396 649 414 633 q 357 651 378 663 q 342 615 342 642 m 508 242 q 493 292 506 275 q 449 317 475 310 q 392 324 418 324 q 340 311 349 324 q 333 250 333 300 q 335 172 333 181 q 350 147 335 153 q 383 144 357 144 q 443 150 429 144 q 493 183 482 164 q 508 242 508 208 z "},"":{"ha":833,"x_min":1,"x_max":646,"o":"m 644 697 q 646 688 646 694 l 646 561 l 646 313 l 646 93 l 646 40 q 618 1 646 8 q 583 0 607 0 l 525 0 q 496 13 507 0 q 486 29 489 19 q 484 38 485 32 q 482 47 483 44 q 450 19 471 32 q 425 10 439 14 q 401 3 411 6 q 374 1 390 1 q 349 0 357 0 q 322 0 342 0 q 296 0 301 0 l 51 0 l 32 0 q 4 22 11 3 q 1 61 1 29 l 1 275 l 1 549 l 1 689 q 19 719 4 710 q 49 724 29 724 l 174 724 q 201 722 197 724 q 218 711 214 718 q 228 708 222 706 q 293 722 257 726 q 359 671 339 714 q 358 586 379 628 q 297 542 339 549 q 264 540 281 536 q 244 546 258 540 q 235 550 242 546 q 226 554 229 554 l 226 507 q 231 474 226 481 q 238 463 233 467 q 249 458 242 460 q 260 456 257 456 q 275 456 263 456 l 286 456 q 368 454 340 456 q 436 431 403 450 q 463 411 456 419 q 481 382 465 408 l 481 479 l 481 625 l 481 675 q 483 699 481 692 q 492 715 486 708 q 509 723 499 721 q 526 725 519 725 q 547 724 533 725 q 564 724 560 724 q 582 724 568 724 q 602 724 596 725 q 619 722 608 724 q 635 713 629 719 q 644 697 640 707 m 244 631 q 252 610 243 619 q 272 599 261 601 q 305 615 293 594 q 303 651 317 635 q 267 661 289 668 q 251 649 258 658 q 244 631 243 640 m 397 233 q 371 288 400 264 q 311 307 358 297 q 253 308 286 311 q 226 274 226 307 l 226 197 q 239 154 226 164 q 288 147 247 147 q 340 153 317 147 q 385 182 367 157 q 397 233 397 199 z "},"":{"ha":833,"x_min":1,"x_max":617,"o":"m 614 242 q 614 193 617 217 q 514 29 604 75 q 340 0 461 0 l 60 0 l 36 0 q 3 24 10 0 q 1 71 1 29 l 1 340 l 1 628 l 1 688 q 17 717 4 710 q 50 722 25 722 l 186 722 q 217 711 207 722 q 225 706 222 706 l 226 707 q 229 708 228 708 q 235 712 231 710 q 240 715 239 714 q 333 704 289 735 q 363 663 353 689 q 368 613 374 638 q 345 569 363 589 q 307 544 328 550 q 269 539 286 538 q 249 544 263 539 q 236 549 244 544 l 232 551 q 226 554 228 554 l 226 486 q 238 463 228 472 q 261 454 247 454 q 386 453 365 454 q 501 425 458 447 q 583 350 561 393 q 614 242 614 297 m 246 626 q 255 607 244 615 q 276 599 265 599 q 307 619 297 599 q 300 654 317 639 q 263 660 283 669 q 246 626 246 651 m 399 228 q 393 256 394 251 q 375 282 389 271 q 318 306 356 303 q 257 308 299 308 q 226 275 229 308 l 226 208 q 235 158 226 169 q 281 147 243 147 q 333 150 317 147 q 381 176 368 158 q 394 201 389 190 q 396 207 394 203 q 397 214 397 211 q 399 228 397 222 z "},"":{"ha":833,"x_min":-1,"x_max":717,"o":"m 714 403 q 713 313 717 365 q 651 138 701 214 q 504 25 596 56 q 321 1 413 -4 q 228 11 268 4 q 142 42 192 19 q 14 168 63 78 q 0 206 -1 197 q 25 232 3 226 q 135 263 51 240 q 143 265 136 263 q 151 267 150 267 q 159 269 153 268 q 168 271 165 271 q 176 271 171 271 q 183 270 181 271 q 190 267 186 269 q 198 263 194 265 q 204 257 201 261 q 217 238 210 251 q 228 221 225 225 q 260 189 236 207 q 343 168 289 168 q 428 192 397 168 q 478 265 464 218 q 469 300 485 288 q 440 306 463 306 l 315 306 q 288 311 296 306 q 269 343 269 319 q 269 361 269 351 q 269 382 269 371 q 269 399 269 393 q 282 432 269 421 q 311 440 293 440 l 369 440 l 433 440 q 464 443 457 440 q 463 518 496 456 q 393 572 436 558 q 304 576 350 585 q 228 529 258 568 q 199 501 213 508 q 168 504 190 499 q 117 524 157 508 q 54 549 76 540 q 26 563 35 554 q 25 599 11 578 q 168 718 76 682 q 350 747 244 747 q 536 708 457 747 q 613 656 583 685 q 644 621 635 633 q 668 585 654 610 q 714 403 710 514 m 390 656 q 385 679 393 661 q 365 692 378 688 q 331 679 344 699 q 329 642 318 660 q 365 628 342 624 q 383 638 375 629 q 390 656 392 646 z "},"":{"ha":833,"x_min":0,"x_max":797,"o":"m 794 426 q 796 339 797 368 q 757 160 789 231 q 646 31 719 71 q 557 3 608 10 q 514 0 526 0 q 499 1 507 0 q 483 3 492 1 q 468 4 474 4 q 315 78 371 11 q 269 149 286 114 q 240 229 256 178 q 235 255 238 236 q 227 285 232 274 q 210 303 222 297 q 174 297 189 315 q 165 267 165 285 l 165 56 q 129 13 165 14 q 36 13 83 10 q 0 51 0 15 l 0 107 l 0 346 l 0 604 l 0 682 q 8 722 0 713 q 38 735 19 735 l 94 735 q 110 735 97 735 q 128 735 122 736 q 142 733 133 735 q 156 725 151 731 q 164 711 161 719 q 165 683 165 707 l 165 625 l 165 519 q 174 490 165 499 q 211 483 186 478 q 232 499 225 488 q 244 529 239 510 q 251 554 250 549 q 267 594 260 582 q 277 614 269 601 q 288 632 285 626 q 289 639 289 636 l 289 643 l 289 657 q 304 697 289 674 q 379 733 329 733 q 393 732 389 733 q 403 729 399 729 q 410 733 406 729 q 430 738 415 735 q 453 743 444 742 q 542 746 500 750 q 632 724 585 744 q 753 601 708 690 q 794 426 790 525 m 390 622 q 394 626 392 624 q 399 629 397 628 q 404 642 400 631 q 403 663 407 649 q 372 682 394 683 q 342 660 349 681 q 351 624 335 638 q 390 622 374 607 m 626 383 q 626 397 626 388 q 625 411 625 406 q 533 578 618 564 q 440 550 474 589 q 400 451 410 518 q 396 349 393 411 q 411 246 399 278 q 436 201 422 221 q 481 172 453 181 q 575 190 533 156 q 618 282 611 222 q 626 383 626 349 z "},"":{"ha":833,"x_min":-1,"x_max":697,"o":"m 696 701 q 697 669 697 699 l 697 493 l 697 242 l 697 58 l 697 26 q 674 3 696 8 q 647 0 665 0 l 533 0 q 478 19 488 0 q 474 40 474 26 l 474 81 l 474 201 q 474 222 474 208 q 475 246 475 235 q 474 267 475 257 q 464 294 474 292 q 452 294 461 296 q 442 293 443 293 q 381 257 404 289 q 347 200 376 250 q 306 122 338 182 q 257 32 275 63 q 206 0 239 3 l 117 0 l 22 0 q 0 14 4 0 q 6 36 -1 17 q 50 122 21 64 q 94 208 79 181 q 131 260 100 219 q 154 285 138 268 q 178 303 158 290 q 186 306 179 303 q 198 311 193 308 q 203 318 203 314 q 198 325 203 322 q 183 331 193 328 l 175 333 q 111 372 136 347 l 96 385 q 90 393 93 388 q 85 401 88 399 q 65 431 76 411 q 47 507 47 469 q 53 581 47 556 q 85 647 60 613 q 215 717 128 701 q 347 724 251 724 l 571 724 l 656 724 q 671 722 667 724 q 696 701 685 721 m 326 653 q 332 632 319 644 q 349 618 338 622 q 383 629 369 611 q 386 667 396 647 q 351 681 374 686 q 333 671 342 679 q 326 653 325 663 m 474 538 q 435 571 469 571 l 357 571 q 300 558 325 571 q 271 513 276 544 q 283 460 267 485 q 329 431 299 438 q 381 425 346 425 l 419 425 l 447 425 q 474 464 474 432 l 474 538 z "},"":{"ha":833,"x_min":0,"x_max":603,"o":"m 601 157 q 603 143 603 154 l 603 111 l 603 35 q 594 3 603 8 q 576 0 590 0 l 475 0 l 143 0 l 33 0 q 0 18 3 0 l 0 89 l 0 232 l 0 567 l 0 675 q 0 682 0 676 q 0 689 0 688 q 1 695 0 690 q 2 702 1 700 q 5 708 3 704 q 10 713 7 711 q 18 714 14 714 l 50 714 q 67 719 64 714 q 67 733 69 724 q 61 754 64 740 q 73 806 56 781 q 118 835 90 831 q 169 825 146 839 q 200 785 193 811 q 199 738 206 756 q 194 732 197 736 q 190 724 192 728 q 189 718 188 721 q 206 714 192 710 q 211 722 207 714 q 214 729 211 725 q 218 735 217 733 q 236 754 225 746 q 285 774 258 774 q 336 758 310 775 q 357 740 350 749 q 364 728 363 732 l 368 715 q 379 713 372 713 q 388 717 386 713 q 379 736 389 721 q 378 788 369 763 q 413 828 389 814 q 465 833 435 840 q 506 803 490 828 q 517 754 521 779 q 508 731 515 743 q 508 717 506 719 q 522 714 510 714 l 561 714 q 592 699 589 714 l 592 646 l 592 575 q 575 554 592 556 l 543 554 l 474 554 l 307 554 l 251 554 q 226 549 232 554 q 222 535 222 544 l 222 501 l 222 467 q 228 451 222 458 q 251 449 232 449 l 311 449 l 478 449 l 536 449 q 561 442 554 449 q 565 401 565 438 l 565 325 q 563 311 565 315 q 549 303 558 303 l 519 303 l 363 303 l 285 303 l 242 303 q 222 285 224 300 l 222 225 l 222 190 q 225 176 222 181 q 247 168 231 168 l 375 168 l 538 168 l 582 168 q 601 157 600 168 m 254 696 q 261 673 253 685 q 281 660 269 661 q 315 676 303 657 q 315 713 328 694 q 281 725 301 732 q 263 714 272 724 l 261 711 q 257 704 258 707 q 256 700 257 703 q 254 696 256 697 z "},"":{"ha":833,"x_min":0,"x_max":0,"o":""},"":{"ha":833,"x_min":-1,"x_max":603,"o":"m 328 1 q 307 1 321 1 q 286 0 293 0 q 115 61 192 4 q 15 203 39 119 q 0 296 1 251 q 15 386 -1 338 q 117 529 44 474 q 292 589 186 582 q 374 578 332 592 q 458 540 419 564 q 569 399 535 489 q 581 222 603 315 q 489 74 563 140 q 417 26 451 40 q 328 1 372 10 m 296 72 q 316 79 307 71 q 328 100 325 88 q 310 133 331 122 q 272 131 290 144 q 264 92 256 117 q 296 72 272 72 z "}}}
